<svg width="88" height="91" viewBox="0 0 88 91" fill="none" xmlns="http://www.w3.org/2000/svg">
<g clip-path="url(#clip0_59_9)">
<path d="M63.6699 76.9892C63.3231 76.8487 62.9468 76.7673 62.5483 76.7673C62.1498 76.7673 61.7734 76.8487 61.4266 76.9892C61.0797 77.1371 60.7624 77.3441 60.5041 77.6104L60.482 77.6252C60.3344 77.7731 60.1942 77.9431 60.0835 78.128C60.0245 78.2242 59.9655 78.3277 59.9138 78.4386H55.2574V74.3862C54.5415 74.7189 53.7962 74.9704 53.0361 75.1256C52.9033 75.1552 52.7779 75.1774 52.645 75.1996V79.7401C52.645 80.1025 52.7926 80.4279 53.0288 80.6645C53.2649 80.9011 53.5896 81.049 53.9512 81.049H59.9581C60.0023 81.1378 60.054 81.2265 60.113 81.3153C60.2164 81.4705 60.3344 81.6185 60.4673 81.7516L60.4894 81.7737C60.7551 82.04 61.0798 82.2618 61.4413 82.4097C61.7882 82.5502 62.1645 82.6316 62.563 82.6316C62.9467 82.6316 63.3231 82.5576 63.6626 82.4171L63.6847 82.4097C64.0463 82.2618 64.3636 82.04 64.6366 81.7737C64.9023 81.5075 65.1237 81.1821 65.2713 80.8198C65.4115 80.4722 65.4927 80.0951 65.4927 79.6958C65.4927 79.3038 65.4115 78.9267 65.2713 78.5717C65.1237 78.2094 64.9023 77.884 64.6366 77.6178C64.3562 77.3589 64.0315 77.1371 63.6699 76.9892ZM42.3802 49.258H36.9194L36.1372 51.8314H31.2225L37.0891 36.2132H42.3581L48.2026 51.8314H43.1624L42.3802 49.258ZM41.3618 45.8711L39.6572 40.2583L37.9452 45.8711H41.3618ZM49.5604 36.2058H54.394V51.8241H49.5604V36.2058ZM45.8781 20.1957C45.0811 20.7725 44.3431 21.549 43.7011 22.5547C43.6716 22.6065 43.6273 22.6508 43.5757 22.6804C43.3764 22.8061 43.1108 22.747 42.9853 22.5547C42.3433 21.549 41.6054 20.7725 40.8084 20.1957C39.9524 19.5745 39.0299 19.1826 38.078 18.9903H38.0632C37.1334 18.7981 36.1815 18.7981 35.2664 18.9607C34.2997 19.1308 33.3625 19.4858 32.5213 19.9739C31.6874 20.4619 30.9347 21.0905 30.3074 21.8152C29.7023 22.5177 29.2153 23.3238 28.8979 24.189C28.8463 24.3221 28.802 24.4626 28.7577 24.6105C28.7208 24.7436 28.6766 24.8915 28.647 25.0394C28.6101 25.2317 28.4478 25.3722 28.2412 25.3796C27.2523 25.5275 26.2709 25.8898 25.3558 26.4297C24.426 26.9843 23.5626 27.7386 22.8173 28.6408C22.0793 29.543 21.4595 30.6078 21.0167 31.791C20.6034 32.9003 20.3525 34.1205 20.3009 35.4146C20.2935 35.5847 20.2935 35.7474 20.2935 35.9174C20.2935 36.0727 20.3009 36.2354 20.3009 36.4055C20.3083 36.546 20.2492 36.6939 20.1238 36.7827C19.5187 37.219 18.9726 37.6701 18.4855 38.1359C17.9911 38.6166 17.5557 39.1121 17.1794 39.6223C16.5669 40.458 16.1167 41.3306 15.8142 42.2106C15.4969 43.1276 15.3419 44.0667 15.3271 44.9911C15.3197 45.8785 15.4378 46.7585 15.6887 47.6089C15.9396 48.4741 16.3234 49.3172 16.8178 50.101C17.0982 50.5521 17.4155 50.9958 17.7623 51.4099C18.1166 51.8314 18.5003 52.2308 18.9135 52.6079C19.0169 52.7041 19.0759 52.8594 19.0464 53.0073C18.9283 53.5693 18.8693 54.1239 18.8471 54.6711C18.8324 55.2331 18.8619 55.7878 18.9357 56.3276C19.0759 57.3185 19.3637 58.2651 19.7696 59.1377C20.1976 60.0695 20.7584 60.9199 21.4078 61.6668C22.0351 62.3989 22.7509 63.0348 23.5183 63.5599C24.2932 64.0923 25.1123 64.5065 25.9535 64.7949C26.3299 64.9206 26.7136 65.0241 27.1047 65.0981C27.4737 65.172 27.8427 65.2164 28.2043 65.2312C28.4035 65.2238 28.588 65.3643 28.6323 65.5713C28.8242 66.4513 29.1784 67.2796 29.6654 68.0265C30.1746 68.8103 30.8166 69.5055 31.5545 70.0823C32.4844 70.807 33.5765 71.3542 34.7277 71.6426C35.8125 71.9162 36.9563 71.968 38.078 71.7314C39.0816 71.5243 40.0557 71.0954 40.956 70.415C41.7825 69.7865 42.5499 68.9434 43.1919 67.849C43.2288 67.7824 43.2879 67.7307 43.3617 67.6937C43.5683 67.5828 43.8266 67.6641 43.9373 67.8712C44.4686 68.8621 45.118 69.6534 45.8412 70.2524C46.6234 70.8957 47.4868 71.332 48.3945 71.5835C49.553 71.9014 50.7633 71.9014 51.9366 71.6574C53.1911 71.3986 54.4013 70.8514 55.4418 70.0971C56.261 69.5129 56.9842 68.7955 57.5597 67.9821C58.1058 67.2204 58.5117 66.37 58.7478 65.4752C58.7774 65.3051 58.9102 65.1572 59.0947 65.1276C60.1795 64.9354 61.2495 64.4843 62.2309 63.8113C63.2124 63.1384 64.1053 62.251 64.8359 61.1935C65.5074 60.2174 66.0461 59.0933 66.393 57.8658C66.7177 56.7195 66.8726 55.4772 66.821 54.1683C66.8062 54.0204 66.8726 53.8725 67.0055 53.7837C67.6401 53.3474 68.2009 52.8889 68.7027 52.423C69.2119 51.935 69.6621 51.4321 70.0458 50.9071C70.6361 50.1084 71.0715 49.2802 71.3741 48.4298C71.684 47.5498 71.8464 46.655 71.8759 45.7602C71.898 44.895 71.7947 44.0371 71.5733 43.1941C71.3519 42.3437 71.0051 41.5228 70.555 40.7464L70.5402 40.7316C70.245 40.2213 69.8982 39.7333 69.5145 39.26C69.1307 38.7867 68.6953 38.343 68.2304 37.9215C68.1197 37.8253 68.0607 37.6701 68.0902 37.5148C68.1935 37.0045 68.26 36.4942 68.2821 35.9914C68.3042 35.4811 68.2895 34.9783 68.2378 34.4828C68.1271 33.4549 67.8541 32.4788 67.4556 31.5692C67.035 30.6078 66.4741 29.7204 65.8174 28.944C65.1827 28.1897 64.4522 27.5315 63.6699 26.9843C62.8877 26.4371 62.0538 26.0082 61.2052 25.7198L61.1831 25.7124C60.7329 25.5571 60.2754 25.4461 59.8252 25.3722H59.8105C59.3677 25.2982 58.9249 25.2687 58.4896 25.2761C58.2903 25.2908 58.0985 25.1577 58.0468 24.9507C57.973 24.6475 57.8771 24.3517 57.7664 24.0633C57.6483 23.7675 57.5155 23.4791 57.3605 23.1907C56.962 22.4512 56.4381 21.7708 55.8256 21.1866C55.1983 20.5876 54.4825 20.0774 53.7151 19.6855C52.9255 19.2861 52.0621 19.0051 51.1765 18.8794C50.3353 18.7611 49.4719 18.7759 48.6232 18.9533C47.6713 19.1826 46.7341 19.5745 45.8781 20.1957ZM57.9435 28.5225C57.9951 28.3598 58.1427 28.2341 58.3272 28.2193C58.6371 28.1971 58.9545 28.2119 59.2718 28.2636C59.5965 28.3154 59.9212 28.3967 60.2459 28.5077C60.8584 28.7147 61.4709 29.0327 62.0391 29.432C62.5999 29.824 63.1312 30.3046 63.5888 30.8519L63.5961 30.8667C64.0758 31.4361 64.4817 32.0721 64.7842 32.7672C65.072 33.4179 65.2639 34.1131 65.3451 34.8452C65.3967 35.3332 65.3967 35.8435 65.3377 36.3611C65.286 36.8418 65.1753 37.3373 65.0056 37.8327L64.9982 37.8623C64.8949 38.1729 64.9023 38.4983 64.9982 38.7867C65.1016 39.0825 65.2934 39.3487 65.5665 39.5262L65.5886 39.541C66.1052 39.9255 66.5627 40.347 66.9612 40.7907C67.3744 41.2418 67.7286 41.7299 68.0238 42.2328C68.3485 42.7874 68.5994 43.3642 68.7544 43.9558C68.9167 44.54 68.9905 45.1316 68.9684 45.7158C68.9536 46.3222 68.8356 46.9286 68.6216 47.5276C68.4149 48.097 68.1124 48.659 67.7139 49.2062L67.7065 49.2136C67.3449 49.7091 66.8874 50.1972 66.3487 50.663C65.8321 51.1067 65.2344 51.5283 64.5481 51.935L64.526 51.9498C64.2529 52.1051 64.0537 52.3417 63.9356 52.6153C63.8175 52.8889 63.7806 53.1921 63.8397 53.4879L63.847 53.5471C63.9873 54.6785 63.9208 55.7582 63.6921 56.7417C63.4412 57.814 63.0058 58.7753 62.4376 59.5962C62.0022 60.2248 61.5004 60.7646 60.9617 61.1935C60.4082 61.6372 59.8105 61.9626 59.198 62.1622H59.1906C58.9692 62.2288 58.7257 62.1031 58.6593 61.8812C57.8254 59.1525 56.3864 58.2725 53.9512 57.0153L53.8995 56.9858C53.5601 56.8231 53.1911 56.8083 52.859 56.9118C52.527 57.0153 52.2392 57.2446 52.0694 57.5774L52.0473 57.6217C51.8849 57.9619 51.8702 58.3316 51.9735 58.6644C52.0842 58.9972 52.3203 59.293 52.6598 59.4705C54.6965 60.5132 56.2019 61.3044 56.1798 63.8631C56.1724 64.6248 55.9363 65.3643 55.5378 66.0298C55.1172 66.7323 54.512 67.3609 53.811 67.8712C53.0952 68.3888 52.2908 68.766 51.4643 68.9508C50.6747 69.1357 49.863 69.1431 49.1029 68.9361C47.8189 68.5811 46.985 67.7233 46.4242 66.6806C45.8928 65.6897 45.5977 64.536 45.3836 63.4859C45.3689 63.449 45.3689 63.4046 45.3689 63.3676C45.3689 62.8352 44.9556 62.4876 44.4169 62.3323C44.1808 62.2584 43.9225 62.2288 43.6716 62.2288C43.4133 62.2288 43.1624 62.2658 42.9263 62.3323C42.395 62.495 41.9817 62.8426 41.9817 63.3676C41.9817 63.4046 41.9743 63.4342 41.967 63.4712C41.5537 65.1128 40.956 66.3478 40.2549 67.2352C39.4358 68.2779 38.4765 68.8473 37.4876 69.0544C36.7644 69.2023 36.0191 69.1653 35.3107 68.9804C34.5654 68.7808 33.8569 68.4184 33.2371 67.9451C32.6246 67.4644 32.1154 66.8802 31.7612 66.2221C31.4217 65.5935 31.2225 64.8984 31.2225 64.1885C31.2225 61.4967 32.846 60.5945 34.9934 59.4927C35.3328 59.3152 35.569 59.0194 35.6797 58.6866C35.7904 58.3464 35.7682 57.9693 35.5985 57.6217C35.4214 57.2816 35.1262 57.0449 34.7941 56.934C34.4621 56.8305 34.0931 56.8452 33.7536 57.0079L33.7315 57.0153C31.2003 58.3095 29.6875 59.256 28.7799 62.0735C28.7282 62.2584 28.5511 62.3989 28.3519 62.3915C28.101 62.3841 27.8501 62.3545 27.5918 62.3027C27.3409 62.251 27.09 62.1844 26.8538 62.0957C26.2561 61.8886 25.6584 61.5854 25.0975 61.2009C24.5441 60.8164 24.0275 60.3579 23.57 59.8254C23.0977 59.2782 22.6918 58.6644 22.3819 57.9915C22.0867 57.3629 21.8801 56.69 21.7768 55.9874V55.9726C21.703 55.455 21.6882 54.9152 21.7473 54.3605C21.7989 53.8429 21.9096 53.3031 22.0941 52.7706L22.1015 52.7484C22.2048 52.4452 22.1974 52.1272 22.1088 51.8462L22.1015 51.8314C22.0055 51.5356 21.8137 51.2768 21.548 51.0919L21.5332 51.0772C21.061 50.7222 20.633 50.3451 20.2566 49.9309C19.8729 49.5168 19.5334 49.0731 19.253 48.6146C18.9135 48.06 18.6479 47.4684 18.4708 46.862C18.301 46.2704 18.2125 45.664 18.2199 45.0429C18.2273 44.4143 18.3379 43.7709 18.5593 43.1423C18.7733 42.5433 19.0833 41.9444 19.5113 41.3602C19.8729 40.8647 20.3156 40.3766 20.847 39.9107C21.3561 39.4596 21.9317 39.0307 22.5959 38.624C22.8394 38.4761 23.0165 38.269 23.1346 38.0324L23.142 38.0102C23.26 37.7662 23.3043 37.4926 23.2674 37.219C23.26 37.1894 23.26 37.1598 23.26 37.1302V37.1154C23.2231 36.8566 23.201 36.5978 23.1862 36.3464C23.1715 36.0727 23.1715 35.7991 23.1789 35.5329C23.2158 34.5642 23.4003 33.6546 23.7028 32.8337C24.0275 31.9537 24.485 31.1625 25.0311 30.4895C25.4813 29.9349 25.9978 29.469 26.5365 29.1067C27.0752 28.7443 27.6434 28.4855 28.2264 28.3376C28.4478 28.271 28.6913 28.3967 28.7577 28.6186C29.2153 30.068 29.7909 30.9776 30.8904 32.0055L30.9347 32.0425C31.2077 32.2939 31.5619 32.4122 31.9088 32.3974C32.2556 32.3826 32.5951 32.2421 32.846 31.9685L32.8681 31.9389C33.119 31.6653 33.2371 31.3104 33.2223 30.9628C33.2075 30.6152 33.06 30.2677 32.7795 30.0015C31.894 29.1806 31.6948 28.6704 31.4291 27.8421C31.1192 26.8882 31.1708 25.9564 31.4734 25.1282C31.68 24.5587 32.0047 24.0263 32.4179 23.5604C32.8238 23.0945 33.3182 22.6804 33.8643 22.3624L33.8865 22.3476C34.4473 22.0223 35.0524 21.7856 35.6797 21.6673C36.2774 21.5564 36.8899 21.549 37.4876 21.6747C38.3289 21.8522 39.1554 22.2959 39.886 23.065C40.528 23.7379 41.0962 24.6697 41.5463 25.8972L41.5537 25.912C41.7087 26.3927 42.2105 26.6737 42.8008 26.7846C43.0665 26.8364 43.3469 26.8512 43.62 26.8364H43.6273C43.9078 26.8216 44.1734 26.7698 44.4243 26.6885C44.8671 26.5406 45.2139 26.304 45.2951 26.0008V25.8307C45.2951 24.9729 45.8043 24.0633 46.5053 23.3164C47.2728 22.5029 48.2985 21.8596 49.1619 21.6821C49.708 21.5712 50.2615 21.5638 50.8002 21.6451C51.361 21.7339 51.9071 21.9113 52.4236 22.1702L52.4679 22.185C52.9919 22.4512 53.4715 22.7913 53.8922 23.1907C54.3054 23.59 54.6596 24.0411 54.9253 24.5366C55.3459 25.313 55.5378 26.2004 55.4049 27.1396C55.2869 27.9604 55.2574 28.4781 54.5711 29.2989L54.5637 29.3063C54.3202 29.5947 54.2169 29.9571 54.2464 30.312C54.2759 30.6522 54.4309 30.985 54.7039 31.2216L54.7482 31.2586C55.036 31.4952 55.3902 31.5914 55.737 31.5618C56.0765 31.5322 56.4086 31.3769 56.6447 31.1033L56.6816 31.0515C57.39 30.2085 57.6188 29.5873 57.9435 28.5225ZM74.1488 64.7135C74.0086 64.366 73.9274 63.9888 73.9274 63.5895C73.9274 63.1901 74.0086 62.813 74.1488 62.4654C74.2964 62.1179 74.503 61.7999 74.7686 61.5411L74.7834 61.5189C74.931 61.371 75.1007 61.2305 75.2852 61.1196C75.3811 61.0604 75.4844 61.0012 75.5951 60.9495V56.2832H69.8687C69.8761 55.98 69.8761 55.6768 69.8613 55.3663C69.8465 55.1962 69.9203 55.0261 70.0679 54.9299C70.6583 54.5232 71.197 54.1017 71.684 53.6654H76.8939C77.2555 53.6654 77.5802 53.8133 77.8164 54.0499C78.0525 54.2866 78.2001 54.612 78.2001 54.9743V60.9938C78.2886 61.0382 78.3772 61.09 78.4657 61.1491C78.6207 61.2527 78.7683 61.371 78.9011 61.5041L78.9233 61.5263C79.1889 61.7925 79.4103 62.1179 79.5579 62.4802C79.6981 62.8278 79.7793 63.2049 79.7793 63.6043C79.7793 63.9888 79.7055 64.3586 79.5653 64.7061L79.5579 64.7283C79.4103 65.0907 79.1889 65.4086 78.9233 65.6823C78.6576 65.9485 78.3329 66.1703 77.9713 66.3182C77.6245 66.4587 77.2481 66.5401 76.8496 66.5401C76.4585 66.5401 76.0822 66.4587 75.728 66.3182C75.3664 66.1703 75.0417 65.9485 74.776 65.6823C74.5177 65.4012 74.2964 65.0759 74.1488 64.7135ZM82.4433 49.7387H74.6579C74.7908 49.4503 74.9088 49.1619 75.0122 48.8661C75.2188 48.2893 75.3664 47.705 75.4549 47.1208H82.4433C82.4949 47.0247 82.5466 46.9286 82.6056 46.8324C82.7163 46.655 82.8491 46.4923 82.9893 46.3518C83.2624 46.0782 83.5797 45.8637 83.9413 45.7158C84.2881 45.5753 84.6645 45.4939 85.063 45.4939C85.4467 45.4939 85.8157 45.5679 86.1625 45.7084L86.1847 45.7158C86.5462 45.8637 86.8636 46.0855 87.1366 46.3518C87.4023 46.618 87.6237 46.9434 87.7712 47.3057C87.9114 47.6533 87.9926 48.0304 87.9926 48.4298C87.9926 48.8217 87.9114 49.1988 87.7712 49.5538C87.6237 49.9162 87.4023 50.2415 87.1366 50.5077C86.8709 50.774 86.5462 50.9958 86.1847 51.1437C85.8378 51.2842 85.4615 51.3656 85.063 51.3656C84.6792 51.3656 84.3103 51.2916 83.9634 51.1511L83.9413 51.1437C83.5797 50.9958 83.2624 50.774 82.9893 50.5077C82.8491 50.3672 82.7237 50.2119 82.613 50.0419L82.5982 50.0197C82.5466 49.9309 82.4949 49.8348 82.4433 49.7387ZM84.9228 42.5803H75.1302C74.8793 41.7521 74.5251 40.946 74.0823 40.177L74.0676 40.1548C74.0307 40.0882 73.9938 40.0291 73.9569 39.9625H83.624V31.4213C83.5502 31.3769 83.4764 31.3326 83.4026 31.2808C83.255 31.1773 83.1222 31.0663 82.9967 30.9406C82.7311 30.6744 82.5097 30.349 82.3621 29.9867C82.2219 29.6391 82.1407 29.262 82.1407 28.8626C82.1407 28.4707 82.2219 28.0862 82.3621 27.7386C82.5097 27.3762 82.7311 27.0583 82.9967 26.7846C83.2624 26.5184 83.5871 26.2966 83.9487 26.1487C84.2955 26.0082 84.6719 25.9268 85.0704 25.9268C85.4615 25.9268 85.8378 26.0082 86.192 26.1487C86.5536 26.2966 86.8783 26.5184 87.144 26.7846C87.4096 27.0509 87.631 27.3762 87.7786 27.7386C87.9188 28.0862 88 28.4633 88 28.8626C88 29.2472 87.9262 29.6169 87.786 29.9645L87.7786 29.9867C87.631 30.349 87.4096 30.667 87.144 30.9406C86.9816 31.1033 86.7898 31.2512 86.5905 31.3769C86.4798 31.4435 86.3544 31.51 86.2363 31.5618V41.264C86.2363 41.6264 86.0887 41.9517 85.8526 42.1884C85.6091 42.4324 85.2844 42.5803 84.9228 42.5803ZM74.6875 36.265H71.352C71.4405 35.7769 71.4922 35.2889 71.5143 34.8008C71.5291 34.4089 71.5291 34.0243 71.5069 33.6472H73.3813V29.787C73.278 29.7352 73.1821 29.6835 73.0861 29.6169C72.909 29.506 72.7467 29.3729 72.5917 29.2176C72.326 28.9514 72.1047 28.626 71.9571 28.2636C71.8169 27.9161 71.7357 27.5389 71.7357 27.147C71.7357 26.7551 71.8169 26.3779 71.9571 26.023C72.1047 25.6754 72.3113 25.3574 72.5696 25.0912L72.5917 25.069C72.8574 24.8028 73.1821 24.5809 73.5437 24.433C73.8905 24.2925 74.2668 24.2112 74.6653 24.2112C75.0638 24.2112 75.4402 24.2925 75.787 24.433C76.1338 24.5809 76.4512 24.788 76.7168 25.0542L76.739 25.069C77.0046 25.3352 77.2186 25.6458 77.3662 26.0008L77.3736 26.023C77.5138 26.3705 77.595 26.7477 77.595 27.147C77.595 27.5389 77.5138 27.9235 77.3736 28.271C77.226 28.6186 77.0194 28.9366 76.7611 29.2028L76.739 29.225C76.5987 29.3655 76.4438 29.4912 76.2667 29.6095C76.1781 29.6687 76.0896 29.7204 75.9936 29.7648V34.9561C75.9936 35.3184 75.846 35.6438 75.6099 35.8805C75.3738 36.1171 75.0417 36.265 74.6875 36.265ZM22.9722 13.8804C23.3191 14.0209 23.6954 14.1022 24.0939 14.1022C24.4924 14.1022 24.8688 14.0209 25.2156 13.8804C25.5624 13.7325 25.8797 13.5254 26.138 13.2592L26.1602 13.2444C26.3078 13.0965 26.448 12.9264 26.5587 12.7416C26.6177 12.6454 26.6767 12.5419 26.7284 12.431H31.3848V16.4612C32.2039 16.0249 33.0895 15.7069 33.9971 15.5221V11.1221C33.9971 10.7597 33.8496 10.4343 33.6134 10.1977C33.3773 9.96104 33.0526 9.81315 32.691 9.81315H26.6841C26.6398 9.72441 26.5882 9.63567 26.5291 9.54693C26.4258 9.39163 26.3078 9.24373 26.1749 9.11062L26.1528 9.08844C25.8871 8.82222 25.5624 8.60037 25.2008 8.45247C24.854 8.31196 24.4777 8.23062 24.0792 8.23062C23.6954 8.23062 23.3191 8.30457 22.9796 8.44507L22.9575 8.45247C22.5959 8.60037 22.2786 8.82222 22.0055 9.08844C21.7399 9.35466 21.5185 9.68004 21.3709 10.0424C21.2307 10.39 21.1495 10.7671 21.1495 11.1664C21.1495 11.5584 21.2307 11.9355 21.3709 12.2905C21.5185 12.6528 21.7399 12.9782 22.0055 13.2444C22.2933 13.5106 22.6106 13.7325 22.9722 13.8804ZM37.923 5.56842V15.67C38.7938 15.9214 39.6424 16.3207 40.4394 16.8975L40.528 16.9641C40.528 16.9419 40.5353 16.9197 40.5353 16.8975V5.56842C40.6313 5.51666 40.7272 5.46489 40.8231 5.40573C41.0003 5.29481 41.1626 5.1617 41.3028 5.02119C41.5685 4.74758 41.7899 4.4296 41.9374 4.06724C42.0777 3.71968 42.1588 3.34253 42.1588 2.9432C42.1588 2.55866 42.085 2.18892 41.9448 1.84135L41.9374 1.81917C41.7899 1.45681 41.5685 1.13883 41.3028 0.865213C41.0371 0.598994 40.7125 0.377144 40.3509 0.229245C40.004 0.0887398 39.6277 0.00739498 39.2292 0.00739498C38.8381 0.00739498 38.4617 0.0887398 38.1075 0.229245C37.7459 0.377144 37.4212 0.598994 37.1556 0.865213C36.8899 1.13143 36.6685 1.45681 36.5209 1.81917C36.3807 2.16673 36.2995 2.54387 36.2995 2.9432C36.2995 3.32774 36.3733 3.69749 36.5135 4.04506L36.5209 4.06724C36.6685 4.4296 36.8899 4.74758 37.1556 5.02119C37.2958 5.1617 37.4507 5.28741 37.6205 5.39834L37.6352 5.40573C37.7312 5.46489 37.8197 5.51666 37.923 5.56842ZM45.059 3.08371V17.8589C45.4132 17.4965 45.7895 17.1786 46.1732 16.8975C46.6529 16.55 47.1547 16.2616 47.6713 16.0397V4.38523H56.1946C56.2388 4.45918 56.2831 4.53313 56.3348 4.60708C56.4381 4.75498 56.5488 4.88809 56.6742 5.0138C56.9399 5.28002 57.2646 5.50187 57.6262 5.64977C57.973 5.79027 58.3494 5.87162 58.7478 5.87162C59.139 5.87162 59.5227 5.79027 59.8695 5.64977C60.2311 5.50187 60.5558 5.28002 60.8215 5.0138C61.0871 4.74758 61.3085 4.4222 61.4561 4.05985C61.5963 3.71228 61.6775 3.33514 61.6775 2.93581C61.6775 2.54387 61.5963 2.16673 61.4561 1.81177C61.3085 1.44942 61.0871 1.12404 60.8215 0.857818C60.541 0.591599 60.2164 0.369749 59.8548 0.22185C59.5079 0.0813448 59.1316 0 58.7405 0C58.3567 0 57.9878 0.0739498 57.6409 0.214455L57.6188 0.22185C57.2572 0.369749 56.9399 0.591599 56.6668 0.857818C56.5045 1.02051 56.3569 1.21278 56.2314 1.41244C56.165 1.52337 56.0986 1.64908 56.047 1.7674H46.3651C46.0035 1.7674 45.6788 1.9153 45.4427 2.15194C45.2065 2.39598 45.059 2.72135 45.059 3.08371ZM51.361 13.3406V15.3668C51.6267 15.3816 51.8997 15.4038 52.1654 15.4481C52.7852 15.5369 53.3904 15.6922 53.9733 15.9066V14.6569H57.8254C57.8771 14.7604 57.9287 14.8565 57.9951 14.9527C58.1058 15.1301 58.2387 15.2928 58.3936 15.4481C58.6593 15.7143 58.984 15.9362 59.3456 16.0841C59.6924 16.2246 60.0688 16.3059 60.4599 16.3059C60.851 16.3059 61.2273 16.2246 61.5815 16.0841C61.9284 15.9362 62.2457 15.7291 62.5114 15.4703L62.5335 15.4481C62.7992 15.1819 63.0205 14.8565 63.1681 14.4942C63.3083 14.1466 63.3895 13.7695 63.3895 13.3701C63.3895 12.9708 63.3083 12.5937 63.1681 12.2461C63.0205 11.8985 62.8139 11.5805 62.5483 11.3143L62.5335 11.2921C62.2678 11.0259 61.9579 10.8115 61.6037 10.6636L61.5815 10.6562C61.2347 10.5157 60.8584 10.4343 60.4599 10.4343C60.0688 10.4343 59.685 10.5157 59.3382 10.6562C58.9914 10.8041 58.674 11.0111 58.4084 11.27L58.3862 11.2921C58.246 11.4326 58.1206 11.5879 58.0025 11.7654C57.9435 11.8542 57.8918 11.9429 57.8475 12.039H52.6672C52.3056 12.039 51.9809 12.1869 51.7447 12.4236C51.5086 12.6528 51.361 12.9782 51.361 13.3406ZM13.8512 26.0303C13.9914 26.3779 14.0726 26.7551 14.0726 27.1544C14.0726 27.5537 13.9914 27.9309 13.8512 28.2784C13.7036 28.626 13.497 28.944 13.2314 29.2028L13.2166 29.225C13.069 29.3729 12.8993 29.5134 12.7148 29.6243C12.6189 29.6835 12.5156 29.7426 12.4049 29.7944V34.4606H17.2384V34.6899C17.2384 34.8674 17.2458 35.0522 17.2532 35.2445C17.2679 35.4072 17.1941 35.5699 17.0539 35.6734C16.4193 36.1245 15.8511 36.5978 15.3345 37.0785H11.1135C10.7519 37.0785 10.4272 36.9306 10.191 36.6939C9.95489 36.4573 9.8073 36.1319 9.8073 35.7695V29.75C9.71874 29.7057 9.63019 29.6539 9.54164 29.5947C9.38667 29.4912 9.23908 29.3729 9.10625 29.2398L9.08411 29.2176C8.81845 28.9514 8.59706 28.626 8.44948 28.2636C8.30927 27.9161 8.22809 27.5389 8.22809 27.1396C8.22809 26.7551 8.30189 26.3853 8.4421 26.0377L8.44948 26.0156C8.59706 25.6532 8.81845 25.3352 9.08411 25.0616C9.34977 24.7954 9.67447 24.5735 10.0361 24.4256C10.3829 24.2851 10.7592 24.2038 11.1577 24.2038C11.5488 24.2038 11.9252 24.2851 12.2794 24.4256C12.641 24.5735 12.9657 24.7954 13.2314 25.0616C13.4823 25.3426 13.7036 25.668 13.8512 26.0303ZM5.55673 41.0052H12.4934C12.3753 41.2714 12.272 41.545 12.1761 41.8112C11.9695 42.4102 11.8219 43.0092 11.7333 43.6156H5.55673C5.50507 43.7118 5.45342 43.8079 5.39438 43.904C5.28369 44.0815 5.15086 44.2442 5.01065 44.3847C4.73761 44.6583 4.42029 44.8728 4.0587 45.0207C3.71187 45.1612 3.33551 45.2425 2.93702 45.2425C2.55329 45.2425 2.18432 45.1686 1.83748 45.0281L1.81535 45.0207C1.45375 44.8728 1.13644 44.6509 0.863396 44.3847C0.597736 44.1185 0.376352 43.7931 0.228763 43.4307C0.0885535 43.0832 0.00737945 42.706 0.00737945 42.3067C0.00737945 41.9148 0.0885535 41.5376 0.228763 41.1827C0.376352 40.8203 0.597736 40.4949 0.863396 40.2287C1.12906 39.9625 1.45375 39.7406 1.81535 39.5928C2.16218 39.4522 2.53853 39.3709 2.93702 39.3709C3.32075 39.3709 3.68973 39.4448 4.03656 39.5854L4.0587 39.5928C4.42029 39.7406 4.73761 39.9625 5.01065 40.2287C5.15086 40.3692 5.27631 40.5245 5.387 40.6946L5.40176 40.7168C5.45342 40.8129 5.50507 40.9091 5.55673 41.0052ZM3.07723 48.1635H12.1023C12.3827 49.0583 12.7886 49.9235 13.3052 50.7444V50.7518L13.3199 50.7814H4.37602V59.3226C4.44981 59.3669 4.52361 59.4113 4.5974 59.4631C4.74499 59.5666 4.87782 59.6775 5.00327 59.8032C5.26893 60.0695 5.49031 60.3948 5.6379 60.7572C5.77811 61.1048 5.85929 61.4819 5.85929 61.8812C5.85929 62.2732 5.77811 62.6577 5.6379 63.0053C5.49031 63.3676 5.26893 63.6856 5.00327 63.9592C4.73761 64.2254 4.41291 64.4473 4.05132 64.5952C3.70449 64.7357 3.32813 64.817 2.92964 64.817C2.53853 64.817 2.16218 64.7357 1.80797 64.5952C1.44637 64.4473 1.12168 64.2254 0.856017 63.9592C0.590356 63.6708 0.368973 63.3454 0.221384 62.9905C0.081174 62.6429 0 62.2658 0 61.8664C0 61.4819 0.0737945 61.1122 0.214004 60.7646L0.221384 60.7424C0.368973 60.3801 0.590356 60.0621 0.856017 59.7885C1.01836 59.6258 1.21023 59.4779 1.40948 59.3522C1.52017 59.2856 1.64562 59.219 1.76369 59.1673V49.4651C1.76369 49.1027 1.91128 48.7773 2.14742 48.5407C2.39094 48.3114 2.71564 48.1635 3.07723 48.1635ZM13.3125 54.4789H15.7478C15.6666 54.9669 15.6223 55.4476 15.6075 55.9209C15.5928 56.3202 15.6002 56.7121 15.6297 57.0967H14.6187V60.9569C14.722 61.0086 14.8179 61.0604 14.9139 61.1269C15.091 61.2379 15.2533 61.371 15.4083 61.5263C15.674 61.7925 15.8953 62.1179 16.0429 62.4802C16.1831 62.8278 16.2643 63.2049 16.2643 63.6043C16.2643 64.0036 16.1831 64.3733 16.0429 64.7283C15.8953 65.0759 15.6887 65.3939 15.4304 65.6601L15.4083 65.6823C15.1426 65.9485 14.8179 66.1703 14.4564 66.3182C14.1095 66.4587 13.7332 66.5401 13.3347 66.5401C12.9362 66.5401 12.5598 66.4587 12.213 66.3182C11.8662 66.1703 11.5488 65.9633 11.2832 65.697L11.261 65.6823C10.9954 65.416 10.7814 65.1054 10.6338 64.7505L10.6264 64.7283C10.4862 64.3807 10.405 64.0036 10.405 63.6043C10.405 63.2123 10.4862 62.8278 10.6264 62.4802C10.774 62.1327 10.9806 61.8147 11.2389 61.5485L11.261 61.5263C11.4013 61.3858 11.5562 61.2601 11.7333 61.1417C11.8219 61.0826 11.9104 61.0308 12.0064 60.9864V55.7952C12.0064 55.4328 12.154 55.1074 12.3901 54.8708C12.6262 54.6194 12.9509 54.4789 13.3125 54.4789ZM48.7265 85.3012V74.9556C47.8041 74.6672 46.9333 74.2013 46.1364 73.5431L46.1216 73.5283V85.3085C46.0257 85.3603 45.9297 85.4121 45.8338 85.4712C45.6567 85.5822 45.4943 85.7153 45.3541 85.8558C45.0885 86.1294 44.8671 86.4474 44.7195 86.8097C44.5793 87.1573 44.4981 87.5344 44.4981 87.9338C44.4981 88.3183 44.5719 88.6881 44.7121 89.0356L44.7195 89.0578C44.8671 89.4202 45.0885 89.7381 45.3541 90.0118C45.6198 90.278 45.9445 90.4998 46.3061 90.6477C46.6529 90.7882 47.0293 90.8696 47.4278 90.8696C47.8189 90.8696 48.1952 90.7882 48.5494 90.6477C48.911 90.4998 49.2357 90.278 49.5014 90.0118C49.767 89.7455 49.9884 89.4202 50.136 89.0578C50.2762 88.7102 50.3574 88.3331 50.3574 87.9338C50.3574 87.5492 50.2836 87.1795 50.1434 86.8319L50.136 86.8097C49.9884 86.4474 49.767 86.1294 49.5014 85.8558C49.3612 85.7153 49.2062 85.5896 49.0365 85.4786L49.0143 85.4638C48.9184 85.4047 48.8225 85.3529 48.7265 85.3012ZM41.5832 87.7859V72.8776C41.2733 73.1956 40.9486 73.4766 40.6091 73.7354C40.0852 74.1347 39.5391 74.4527 38.9709 74.7041V86.4917H30.4476C30.4034 86.4178 30.3591 86.3438 30.3074 86.2699C30.2041 86.122 30.0934 85.9889 29.968 85.8632C29.7023 85.597 29.3776 85.3751 29.016 85.2272C28.6692 85.0867 28.2928 85.0053 27.8943 85.0053C27.5032 85.0053 27.1195 85.0867 26.7727 85.2272C26.4111 85.3751 26.0938 85.597 25.8207 85.8632C25.5551 86.1294 25.3337 86.4548 25.1861 86.8171C25.0459 87.1647 24.9647 87.5418 24.9647 87.9412C24.9647 88.3331 25.0459 88.7102 25.1861 89.0652C25.3337 89.4276 25.5551 89.7529 25.8207 90.0192C26.0864 90.2854 26.4111 90.5072 26.7727 90.6551C27.1195 90.7956 27.4958 90.877 27.8943 90.877C28.2781 90.877 28.647 90.803 28.9939 90.6625L29.016 90.6551C29.3776 90.5072 29.6949 90.2854 29.968 90.0192C30.1303 89.8565 30.2779 89.6642 30.4034 89.4645C30.4698 89.3536 30.5362 89.2279 30.5878 89.1096H40.2697C40.6313 89.1096 40.956 88.9617 41.1921 88.725C41.4356 88.4736 41.5832 88.1482 41.5832 87.7859ZM35.2812 77.529V75.3771C34.7056 75.3475 34.13 75.2588 33.5691 75.1183C33.2666 75.0443 32.964 74.9482 32.6688 74.8446V76.2275H28.8168C28.7651 76.124 28.7135 76.0278 28.647 75.9317C28.5364 75.7542 28.4035 75.5915 28.2486 75.4362C27.9829 75.17 27.6582 74.9482 27.2966 74.8003C26.9498 74.6598 26.5734 74.5784 26.1823 74.5784C25.7912 74.5784 25.4148 74.6598 25.0606 74.8003C24.7138 74.9482 24.3965 75.1552 24.1308 75.4141L24.1087 75.4288C23.843 75.6951 23.6216 76.0204 23.474 76.3828C23.3338 76.7304 23.2527 77.1075 23.2527 77.5068C23.2527 77.9062 23.3338 78.2833 23.474 78.6309C23.6216 78.9784 23.8283 79.2964 24.0939 79.5626L24.1087 79.5848C24.3743 79.851 24.6843 80.0655 25.0385 80.2134L25.0606 80.2208C25.4075 80.3613 25.7838 80.4426 26.1823 80.4426C26.5734 80.4426 26.9498 80.3613 27.304 80.2208C27.6508 80.0729 27.9681 79.8658 28.2338 79.607L28.2559 79.5848C28.3961 79.4443 28.5216 79.289 28.6397 79.1116C28.6987 79.0228 28.7504 78.9341 28.7946 78.8379H33.975C34.3366 78.8379 34.6613 78.69 34.8974 78.4534C35.1336 78.2168 35.2812 77.8914 35.2812 77.529Z" fill="white"/>
</g>
<defs>
<clipPath id="clip0_59_9">
<rect width="88" height="90.8696" fill="white"/>
</clipPath>
</defs>
</svg>
