<svg width="85" height="54" viewBox="0 0 85 54" fill="none" xmlns="http://www.w3.org/2000/svg">
<g clip-path="url(#clip0_5_37)">
<path fill-rule="evenodd" clip-rule="evenodd" d="M1.74587 50.511H10.3996C9.76037 50.3459 9.27922 49.754 9.27922 49.0659V23.4181C9.46481 23.4388 9.65039 23.4456 9.83598 23.4456C10.0216 23.4456 10.2071 23.4388 10.3927 23.4181C10.5783 23.6865 10.7845 23.9342 11.0113 24.1682C11.1763 24.3334 11.3481 24.4779 11.5269 24.6086C11.6231 24.6843 11.7193 24.7532 11.8224 24.822V48.6392H72.4398V7.81751H30.6214C30.374 7.23945 30.0234 6.72333 29.5698 6.25538L29.4667 6.15216C29.3498 6.04205 29.233 5.93195 29.1093 5.82872C29.1299 5.71174 29.1505 5.59475 29.1642 5.47776H73.299C74.1238 5.47776 74.7905 6.15216 74.7905 6.97107V49.059C74.7905 49.754 74.3163 50.339 73.6701 50.5041H82.7157C83.678 50.5041 84.4615 51.2886 84.4615 52.2521C84.4615 53.2155 83.678 54 82.7157 54H1.74587C0.783579 54 0 53.2155 0 52.2521C0 51.2955 0.783579 50.511 1.74587 50.511ZM39.5295 17.8371C39.392 17.6995 39.2271 17.6307 39.0346 17.6307C38.849 17.6307 38.6772 17.6995 38.5397 17.8371L37.7974 18.5803C37.598 18.4496 37.385 18.3395 37.1581 18.2363C36.9382 18.133 36.7113 18.0505 36.4777 17.9679V16.8187C36.4777 16.626 36.4089 16.4608 36.2783 16.3232C36.1408 16.1855 35.9828 16.1236 35.7834 16.1236H34.34C34.1544 16.1236 33.9963 16.1924 33.852 16.3232C33.7145 16.4608 33.6458 16.6191 33.6458 16.8187V17.8715C33.4052 17.9266 33.1715 18.0023 32.9447 18.0849C32.7178 18.1743 32.5048 18.2707 32.2986 18.3808L31.4669 17.5619C31.3363 17.4242 31.1782 17.3554 30.9857 17.3554C30.7933 17.3554 30.6352 17.4242 30.4908 17.5619L29.4942 18.5803C29.3567 18.718 29.288 18.8831 29.288 19.0758C29.288 19.2685 29.3567 19.4337 29.4942 19.5713L30.2434 20.3214C30.1128 20.521 30.0028 20.7343 29.8997 20.9614C29.7966 21.1816 29.7073 21.4087 29.6316 21.6427H28.4838C28.2913 21.6427 28.1264 21.7115 27.9889 21.8422C27.8514 21.9799 27.7896 22.1381 27.7896 22.3377V23.7828C27.7896 23.9687 27.8583 24.1269 27.9889 24.2714C28.1264 24.4091 28.2844 24.4779 28.4838 24.4779H29.5354C29.5904 24.7187 29.666 24.9527 29.7485 25.1798C29.8379 25.4069 29.9341 25.6271 30.0441 25.8404L29.2261 26.6594C29.0886 26.7901 29.0199 26.9484 29.0199 27.1411C29.0199 27.3338 29.0886 27.492 29.2261 27.6365L30.2434 28.6481C30.3809 28.7789 30.5458 28.8408 30.7383 28.8408C30.9307 28.8408 31.0957 28.7789 31.2332 28.6481L31.9824 27.8843C32.1817 28.015 32.3948 28.1251 32.6216 28.2284C32.8416 28.3316 33.0684 28.4211 33.3021 28.4899V29.6391C33.3021 29.8318 33.3708 29.9969 33.5014 30.1277C33.6389 30.2653 33.797 30.3273 33.9963 30.3273H35.4398C35.6253 30.3273 35.7834 30.2584 35.9278 30.1277C36.0652 29.9901 36.134 29.8318 36.134 29.6391V28.5862C36.3745 28.5312 36.6082 28.4555 36.8351 28.3729C37.0619 28.2834 37.2818 28.1871 37.4949 28.077L38.3129 28.8959C38.4435 29.0335 38.6016 29.1023 38.8009 29.1023C39.0002 29.1023 39.1583 29.0335 39.2889 28.8959L40.3131 27.8843C40.4437 27.7467 40.5055 27.5815 40.5055 27.3888C40.5055 27.1961 40.4437 27.031 40.3131 26.8933L39.5501 26.1432C39.6807 25.9437 39.7907 25.7303 39.8938 25.5033C39.9969 25.283 40.0794 25.0559 40.155 24.822H41.3028C41.4953 24.822 41.6603 24.7532 41.7977 24.6224C41.9352 24.4848 41.9971 24.3265 41.9971 24.1269V22.6818C41.9971 22.496 41.9283 22.3377 41.7977 22.1932C41.6603 22.0556 41.5022 21.9867 41.3028 21.9867H40.2512C40.1962 21.7528 40.1206 21.5257 40.0381 21.2917C39.9488 21.0577 39.8525 20.8444 39.7426 20.638L40.5605 19.8053C40.698 19.6745 40.7667 19.5162 40.7667 19.3236C40.7667 19.1309 40.698 18.9726 40.5605 18.8281L39.5295 17.8371ZM34.8899 20.404C35.2748 20.404 35.646 20.4797 35.9896 20.6242C36.3333 20.7756 36.6357 20.9751 36.8901 21.2298C37.1444 21.4844 37.3437 21.7872 37.4949 22.1313C37.6393 22.4822 37.7149 22.8469 37.7149 23.2323C37.7149 23.6177 37.6393 23.9893 37.4949 24.3334C37.3437 24.6775 37.1444 24.9802 36.8901 25.2349C36.6357 25.4895 36.3333 25.6891 35.9896 25.8404C35.6391 25.985 35.2748 26.0607 34.8899 26.0607C34.505 26.0607 34.1338 25.985 33.7901 25.8404C33.4464 25.6891 33.144 25.4895 32.8897 25.2349C32.6354 24.9802 32.436 24.6775 32.2848 24.3334C32.1405 23.9824 32.0649 23.6177 32.0649 23.2323C32.0649 22.8469 32.1405 22.4753 32.2848 22.1313C32.436 21.7872 32.6354 21.4844 32.8897 21.2298C33.144 20.9751 33.4464 20.7756 33.7901 20.6242C34.1338 20.4728 34.4981 20.404 34.8899 20.404ZM23.1293 2.5806C22.9162 2.36727 22.6688 2.26405 22.387 2.26405C22.0983 2.26405 21.8508 2.36727 21.6446 2.5806L20.5105 3.70919C20.2081 3.50962 19.885 3.33758 19.5482 3.18619C19.2114 3.03479 18.8678 2.89716 18.5241 2.78705V1.046C18.5241 0.750096 18.4278 0.509239 18.2216 0.302791C18.0154 0.103224 17.768 0 17.4724 0H15.2935C15.0117 0 14.7711 0.103224 14.5581 0.302791C14.3519 0.509239 14.2488 0.750096 14.2488 1.046V2.64254C13.8845 2.72512 13.527 2.83522 13.1902 2.96597C12.8466 3.09672 12.5235 3.24812 12.2142 3.42016L10.9564 2.18147C10.757 1.97502 10.5233 1.86492 10.2278 1.86492C9.93908 1.86492 9.69163 1.97502 9.48543 2.18147L7.95951 3.71607C7.74643 3.9294 7.64333 4.17714 7.64333 4.45928C7.64333 4.74831 7.74643 4.99605 7.95951 5.2025L9.08676 6.33796C8.88743 6.64075 8.71559 6.96419 8.56438 7.30139C8.41316 7.63859 8.27569 7.98267 8.16571 8.32675H6.43359C6.13803 8.32675 5.89059 8.42997 5.69126 8.62954C5.48505 8.83599 5.38882 9.08373 5.38882 9.37275V11.5542C5.38882 11.8295 5.49192 12.0772 5.69126 12.2906C5.89746 12.497 6.14491 12.6002 6.43359 12.6002H8.02137C8.11073 12.965 8.21383 13.3159 8.34443 13.66C8.47502 14.0041 8.62624 14.3344 8.79808 14.6578L7.56085 15.8965C7.35464 16.0961 7.24467 16.3301 7.24467 16.626C7.24467 16.915 7.35464 17.1627 7.56085 17.3692L9.09364 18.9175C9.30672 19.1171 9.55416 19.2135 9.83598 19.2135C10.1247 19.2135 10.3721 19.1171 10.5783 18.9175L11.7124 17.7614C12.0149 17.961 12.3379 18.133 12.6747 18.2844C13.0115 18.4358 13.3552 18.5735 13.6989 18.6836V20.4246C13.6989 20.7205 13.802 20.9614 14.0013 21.1678C14.2075 21.3743 14.455 21.4706 14.7437 21.4706H16.9226C17.2044 21.4706 17.4449 21.3674 17.658 21.1678C17.8642 20.9614 17.9673 20.7205 17.9673 20.4246V18.835C18.3316 18.7524 18.6822 18.6423 19.0258 18.5115C19.3695 18.3808 19.6994 18.2294 20.0225 18.0642L21.2529 19.3029C21.4522 19.5094 21.6928 19.6195 21.9883 19.6195C22.2839 19.6195 22.5313 19.5094 22.7238 19.3029L24.2703 17.7683C24.4697 17.555 24.5659 17.3073 24.5659 17.0251C24.5659 16.7361 24.4697 16.4883 24.2703 16.2819L23.1293 15.1395C23.3287 14.8368 23.5005 14.5133 23.6517 14.1761C23.8029 13.8389 23.9404 13.4948 24.0504 13.1508H25.7894C26.0849 13.1508 26.3255 13.0475 26.5317 12.848C26.7379 12.6415 26.8341 12.3938 26.8341 12.1048V9.92328C26.8341 9.64114 26.731 9.40028 26.5317 9.18695C26.3255 8.9805 26.0849 8.87728 25.7894 8.87728H24.1947C24.1054 8.52632 24.0023 8.17535 23.8717 7.83127C23.7411 7.48031 23.5898 7.14999 23.4249 6.84032L24.6621 5.58787C24.8683 5.3883 24.9783 5.14744 24.9783 4.85842C24.9783 4.56939 24.8683 4.32165 24.6621 4.1152L23.1293 2.5806ZM16.1115 6.46183C16.6957 6.46183 17.2525 6.57194 17.7749 6.79215C18.2973 7.01924 18.7509 7.32203 19.1358 7.7074C19.5207 8.09277 19.8232 8.54696 20.05 9.06996C20.2699 9.59985 20.3799 10.1504 20.3799 10.7353C20.3799 11.3202 20.2699 11.8777 20.05 12.4007C19.8232 12.9237 19.5207 13.3779 19.1358 13.7632C18.7509 14.1486 18.2973 14.4514 17.7749 14.6785C17.2525 14.8987 16.6957 15.0088 16.1115 15.0088C15.5272 15.0088 14.9705 14.8987 14.4481 14.6785C13.9257 14.4514 13.4721 14.1486 13.0871 13.7632C12.7022 13.3779 12.3998 12.9237 12.173 12.4007C11.953 11.8777 11.843 11.3202 11.843 10.7353C11.843 10.1504 11.953 9.59297 12.173 9.06996C12.3998 8.54696 12.7022 8.09277 13.0871 7.7074C13.4721 7.32203 13.9257 7.01924 14.4481 6.79215C14.9705 6.57194 15.5272 6.46183 16.1115 6.46183ZM45.6194 20.0117L51.7849 14.0385C53.9844 16.2406 54.8024 17.0595 57.0225 19.2547L61.5522 14.6509L58.8234 11.9189L66.5011 11.8501V19.5988L63.8823 16.9769C61.1535 19.7433 59.7857 21.1541 57.0432 23.8998L51.7437 18.6767L47.9495 22.3446L45.6194 20.0117ZM25.4044 33.83H35.0136V36.3143H29.0062V38.1654H34.5737V40.5396H29.0062V42.8311H35.1923V45.4668H25.4044V33.83ZM36.9038 45.4668V33.83H42.8837C43.9904 33.83 44.8427 33.9263 45.4269 34.119C46.0112 34.3117 46.4855 34.6627 46.8498 35.1788C47.2072 35.6949 47.3859 36.328 47.3859 37.0712C47.3859 37.7181 47.2484 38.2755 46.9735 38.7435C46.6985 39.2114 46.3205 39.5968 45.8394 39.8858C45.5369 40.0716 45.1108 40.223 44.5815 40.3469C45.0077 40.4914 45.317 40.629 45.5163 40.7735C45.6469 40.8699 45.8394 41.0763 46.0868 41.386C46.3342 41.6957 46.5061 41.9365 46.5886 42.1086L48.3344 45.4668H44.2791L42.3614 41.9159C42.1208 41.4548 41.9008 41.1589 41.7153 41.0213C41.4541 40.8424 41.1585 40.7529 40.8354 40.7529H40.5193V45.4668H36.9038ZM40.5055 38.5577H42.0246C42.1895 38.5577 42.5057 38.5026 42.98 38.3994C43.2206 38.3512 43.413 38.2342 43.5642 38.0347C43.7154 37.8351 43.7911 37.6149 43.7911 37.3603C43.7911 36.9818 43.6742 36.6927 43.4336 36.4932C43.1931 36.2936 42.7463 36.1904 42.0933 36.1904H40.5124V38.5577H40.5055ZM49.1936 33.83H55.1667C56.4658 33.83 57.4418 34.1397 58.0879 34.759C58.734 35.3784 59.0571 36.2592 59.0571 37.4084C59.0571 38.5852 58.6997 39.5073 57.9986 40.168C57.2906 40.8286 56.2115 41.1589 54.7612 41.1589H52.7885V45.4668H49.1867V33.83H49.1936ZM52.7953 38.8054H53.682C54.3831 38.8054 54.8711 38.6815 55.1529 38.4407C55.4348 38.1998 55.5791 37.8901 55.5791 37.5117C55.5791 37.1469 55.4554 36.8373 55.2079 36.5826C54.9605 36.328 54.5068 36.2042 53.8264 36.2042H52.7953V38.8054ZM39.7769 51.1648H44.6846C45.1451 51.1648 45.5232 51.5433 45.5232 52.0043C45.5232 52.4654 45.1451 52.8439 44.6846 52.8439H39.7769C39.3164 52.8439 38.9384 52.4654 38.9384 52.0043C38.9384 51.5364 39.3164 51.1648 39.7769 51.1648Z" fill="white"/>
</g>
<defs>
<clipPath id="clip0_5_37">
<rect width="84.4615" height="54" fill="white"/>
</clipPath>
</defs>
</svg>
