<svg width="49" height="62" viewBox="0 0 49 62" fill="none" xmlns="http://www.w3.org/2000/svg">
<path d="M14.4242 38.3418C12.586 36.8956 10.6244 35.5096 9.28419 33.5568C6.4634 30.1133 4.29218 26.1272 2.80776 21.9375C1.91011 19.213 1.603 16.2921 0.445267 13.6733C-0.76423 11.7707 0.653584 9.69229 2.73738 9.08786C3.66439 8.90921 5.29557 8.03397 3.32666 8.66018C1.56102 9.9549 1.3909 7.48382 3.20104 7.32727C4.43642 7.16346 4.89124 6.15249 4.4683 5.24253C3.1417 4.37707 7.68394 3.42765 5.39815 2.13672C3.01861 -0.431567 8.72805 -0.925845 7.31907 1.99122C6.9823 4.23409 11.3099 1.57932 10.3049 4.1697C11.326 5.41392 14.1272 4.45345 14.0568 6.19794C15.5438 6.30021 16.0542 7.55042 17.4486 7.64669C18.8961 8.30005 21.5174 8.81421 22.0092 10.4441C20.5743 11.5798 17.2526 8.09804 17.0923 11.242C17.5263 15.8875 17.4155 20.6728 19.1145 25.0963C19.9181 27.7745 21.8674 29.8826 23.6268 31.9689C25.311 34.0116 27.592 35.4506 29.9173 36.6614C31.9566 37.6231 34.155 38.2604 36.3779 38.6612C37.2791 37.9719 38.8708 35.4086 40.2763 36.4887C40.3442 37.7045 37.4864 39.0286 40.1422 38.8941C41.703 38.4232 42.7843 40.0999 44.0689 38.587C45.2525 39.9891 48.9883 37.6919 48.1462 40.5575C47.0071 41.2923 45.3463 40.8482 44.2059 41.8595C42.3257 40.9199 40.8287 42.6991 38.7464 42.4747C36.4348 42.8888 34.082 43.0554 31.7385 43.0589C27.8928 42.7556 23.9661 42.6274 20.3079 41.2885C18.2465 40.6894 16.2356 39.5156 14.4242 38.3418ZM17.6718 39.7498C19.6839 40.6191 21.6519 41.5363 23.8575 41.8137C27.3566 42.2995 30.9702 43.0491 34.4816 42.3661C32.8924 41.6487 31.2489 42.6448 29.6657 41.8532C27.7672 42.2613 25.7292 41.7484 23.7982 41.4956C21.6036 40.5181 19.2341 39.8461 17.1787 38.576C14.6092 37.6379 18.5066 39.7795 19.2007 39.9534C20.806 40.8643 17.435 39.4859 16.9591 39.1075C15.6142 38.3528 15.4428 38.5107 16.8262 39.2764C17.1046 39.4392 17.3798 39.6106 17.6718 39.7498ZM13.8422 37.0436C15.7928 37.7661 13.8337 35.6725 12.9411 35.7934C12.5453 35.1066 11.4283 34.6726 12.2161 34.3039C10.7995 34.796 10.7317 32.4335 10.066 32.7715C8.56676 32.2981 9.48272 30.6211 7.69625 29.5906C7.53339 28.5055 5.92209 27.5649 5.40919 25.9287C5.18225 25.0903 3.588 22.6849 4.56709 24.9237C5.40036 27.0788 6.86646 28.9259 8.087 30.7692C9.0339 32.5247 10.1534 34.3607 11.8784 35.4557C12.4604 36.014 13.0213 36.8684 13.8422 37.0436ZM8.22525 30.8752C8.5816 31.5125 8.2928 30.5804 8.22525 30.8752ZM16.1788 37.9091C16.6103 37.7156 15.5574 37.6651 16.1788 37.9091ZM17.2365 38.2951C17.127 37.7623 16.7533 38.5933 17.2365 38.2951ZM18.5622 38.8474C19.1922 38.2468 17.5894 38.4687 18.5622 38.8474ZM20.8331 40.1134C21.2166 39.5475 19.6063 39.9004 20.8331 40.1134ZM16.4724 37.0733C17.4511 36.4395 15.2061 37.0644 16.4724 37.0733ZM17.466 37.5688C17.4376 37.2346 17.1122 37.719 17.466 37.5688ZM22.4334 40.6696C23.2322 41.1739 27.0978 41.7743 24.6775 40.8766C24.2716 40.9618 20.1896 39.7214 22.4334 40.6696ZM14.5477 34.5271C14.47 34.1919 13.3072 34.1559 14.5477 34.5271ZM16.8593 35.8761C17.4622 35.4557 15.6104 35.5516 16.8593 35.8761ZM18.8049 37.0682C19.6691 36.7428 17.4044 36.7415 18.8049 37.0682ZM13.6055 33.5025C14.5426 34.2212 17.3858 33.595 15.0407 33.0736C13.9742 32.5051 11.57 32.1157 13.2087 33.4164L13.6055 33.5025ZM20.123 37.4801C20.5137 36.8154 18.4855 37.1001 20.123 37.4801ZM18.1427 35.9067C20.4335 36.5541 16.2158 34.4567 17.5771 35.6674L17.8791 35.8044L18.1427 35.9067ZM22.113 38.2013C24.283 38.2222 20.1526 37.9018 22.113 38.2013ZM12.771 32.2473C12.6857 31.8429 12.236 32.2807 12.771 32.2473ZM25.7835 40.2602C25.8412 39.5305 25.0755 40.804 25.7835 40.2602ZM16.4746 34.5148C16.3426 34.13 15.7966 34.4987 16.4746 34.5148ZM12.9768 31.9935C14.2222 31.9184 11.2705 31.4449 12.9768 31.9935ZM8.83284 29.3154C8.67755 28.7176 7.47784 28.2416 8.83284 29.3154ZM19.7111 36.2189C19.6037 36.2754 19.4832 35.9585 19.7111 36.2189ZM26.481 40.3738C26.4602 39.9755 26.1124 40.5241 26.481 40.3738ZM19.112 35.5999C19.2341 35.087 18.0493 35.4443 19.112 35.5999ZM14.0679 32.4029C14.9952 32.3041 12.5822 31.7764 14.0679 32.4029ZM22.6 37.7045C24.045 37.1323 21.192 37.4258 22.6 37.7045ZM18.1626 34.6925C19.8269 34.9068 16.1814 33.5593 17.7964 34.5716L18.1626 34.6925ZM23.9475 38.2493C25.5023 37.321 24.9894 40.4256 26.5849 38.5119C28.158 37.363 25.2261 39.9323 27.1644 38.7168C28.5673 37.7784 30.6385 39.1618 31.9468 39.6119C32.8874 39.5661 33.8024 40.4256 34.7676 39.9026C36.6244 39.402 31.1356 39.1605 32.5743 38.2739C30.8752 38.7685 29.6203 37.6846 28.7842 36.596C26.8781 36.1557 24.675 35.1817 23.723 33.494C23.3348 32.8615 24.283 33.584 23.3878 32.5484C22.2399 31.5273 21.6667 30.3671 20.8959 29.1257C19.9749 28.6349 19.8663 27.1887 19.7739 29.0777C19.7814 27.8853 18.6619 27.0826 18.3882 27.4156C18.3832 26.2676 19.5867 26.8434 18.7446 25.994C18.5634 24.8041 17.9666 23.564 17.7876 22.22C17.5092 21.5726 17.7481 20.1858 16.836 21.6515C16.5042 23.2013 16.7261 19.748 17.2428 20.8858C17.9208 19.7246 16.9985 19.8613 16.9616 20.0216C17.4032 19.0416 17.2416 17.6506 16.8458 18.1809C17.0812 17.1415 17.2182 14.3564 16.4945 14.8506C16.9332 13.7633 17.3268 9.87694 15.4204 11.3591C14.6487 11.3702 13.311 11.6391 12.6797 11.9535C14.661 13.0459 12.48 12.348 11.6723 12.1741C11.5675 13.1851 10.7686 12.7485 9.76995 12.7583C11.3655 12.9556 8.99318 14.3895 8.07975 13.8324C6.89108 14.3996 9.10428 15.8174 8.1031 16.2562C8.22651 16.9158 6.28317 16.0172 6.43499 17.5436C5.28199 17.0575 6.27718 19.3534 6.85415 18.5767C8.8158 19.1082 8.23504 20.3177 8.28427 21.4678C7.96486 22.1373 6.70612 19.8935 8.00431 19.997C6.97977 18.3336 6.87151 19.3954 6.02057 20.1684C5.8233 20.2239 8.19053 21.2681 6.70486 21.7835C8.01189 21.9858 8.05008 23.13 8.31647 23.8537C9.10176 24.6721 8.94016 22.9497 9.88105 23.9339C9.28546 23.057 6.72948 21.4641 8.78739 21.9748C8.77634 21.0932 8.41495 20.3818 9.04621 20.3988C9.67147 19.2682 8.39159 23.1877 9.79962 21.7503C10.1891 21.5802 10.2866 20.6185 10.987 21.8416C12.004 22.8427 11.3544 23.5674 9.91924 22.6502C10.1755 23.522 11.8389 23.8326 11.5258 25.1951C11.8572 26.3936 12.3209 25.952 12.7252 25.8829C13.0421 27.0469 13.2223 26.1913 13.2372 25.6364C14.6881 25.9473 14.3479 26.8052 14.8027 27.4045C15.8026 27.8556 13.3713 24.3455 15.0877 26.3491C16.8937 27.9803 15.7657 28.6608 14.1446 28.3994C15.1704 28.3167 15.5005 29.7866 16.7842 29.7348C17.9543 30.2919 18.7471 32.43 16.7299 31.5396C16.0308 30.9084 13.5537 30.1303 15.5772 31.33C17.4439 32.1955 18.9283 32.7122 20.7296 33.7986C22.018 34.7183 22.5751 35.7722 23.0634 35.9809C21.9798 36.4985 19.7988 35.5677 21.4186 35.283C20.4077 35.0993 19.2711 34.5877 20.2388 35.8464C21.0623 36.5345 23.1546 36.4616 23.5308 36.5392C23.2127 37.2396 22.6666 37.2952 23.5431 37.3494C22.5653 37.8709 23.8575 37.9523 23.9475 38.2493ZM21.9476 32.6014C21.352 31.9787 21.198 30.8137 21.8416 31.8269C22.172 31.96 22.8983 33.732 21.9476 32.6014ZM28.4613 36.739C28.8325 36.7144 28.4723 37.0212 28.4613 36.739ZM21.0083 31.075C21.2226 31.801 20.9846 30.1341 21.0083 31.075ZM20.3609 30.2045C21.304 30.6139 19.6113 28.7583 20.3609 30.2045ZM12.5144 24.7895C12.9547 24.6721 12.7315 25.5414 12.5144 24.7895ZM18.7594 28.1737C19.0763 29.0247 19.0293 27.159 18.7594 28.1737ZM14.3479 25.1061C14.9977 25.6316 14.0373 24.5465 14.3479 25.1061ZM18.1329 26.3194C17.424 24.7315 18.636 25.4514 18.2907 26.5795L18.1329 26.3194ZM11.6047 21.9659C11.2878 21.4445 10.7639 19.9156 10.9327 19.4484C11.0842 20.2091 12.5491 22.7206 11.6502 20.4891C10.6578 18.6186 12.8376 21.0954 13.062 21.5629C13.1668 22.0265 12.449 21.436 12.9348 22.5246C12.0485 21.2854 12.4121 23.2089 11.6047 21.9659ZM9.58751 20.5752C10.0487 21.4063 9.67021 19.3632 9.58751 20.5752ZM10.495 20.8883C11.2285 22.1632 10.9277 19.9737 10.495 20.8883ZM8.31142 19.1994C7.56053 18.452 7.0167 17.7642 8.34708 18.7357C8.85872 18.7553 7.20797 17.1712 8.4705 18.2326C9.79709 18.4744 9.12511 20.4089 8.31142 19.1994ZM9.45811 19.1697C9.89462 18.737 9.68978 19.5952 9.45811 19.1697ZM10.1645 19.3954C10.9671 19.9156 9.50229 18.1562 10.1645 19.3954ZM8.76151 18.0552C6.57797 16.1106 11.5047 19.0709 9.11785 18.4151L8.76151 18.0552ZM15.0186 21.6897C14.0729 21.1238 14.767 17.7014 15.0902 20.0415C16.0087 19.7442 15.0394 21.251 15.7237 21.2362C15.6167 22.1865 15.3096 22.5284 15.0186 21.6897ZM17.3328 23.0583C17.5275 23.7637 17.4253 22.0265 17.3328 23.0583ZM16.931 22.66C17.0345 22.22 16.9408 23.1792 16.931 22.66ZM9.18919 17.4164C7.78621 15.4806 13.2665 19.3743 10.0881 17.9072C9.75638 17.8198 9.35584 17.7889 9.18919 17.4164ZM13.6462 19.7789C13.9423 20.0488 13.5133 18.149 13.6462 19.7789ZM17.0295 21.9498C17.2908 21.0215 17.0493 22.564 17.0295 21.9498ZM9.40508 16.6778C10.2387 16.4992 12.8597 18.1414 10.453 17.1465C10.1856 16.8505 9.61466 16.9849 9.40508 16.6778ZM16.5645 20.246C16.6535 18.5792 17.0629 19.2512 16.5683 20.4853L16.5645 20.246ZM10.0253 16.0974C10.3655 15.599 9.12259 13.8447 10.2039 15.4683C10.6714 15.8395 11.5564 16.0898 10.7749 16.2464C12.004 17.3302 10.4754 16.5399 10.0253 16.0974ZM16.2107 19.7259C16.4452 17.827 16.4181 20.8378 16.2107 19.7259ZM9.31512 14.3441C9.5752 14.233 9.45306 14.6903 9.31512 14.3441ZM10.9289 15.3045C11.6947 16.276 11.3443 14.4328 10.9289 15.3045ZM15.4797 17.8356C15.5659 18.3226 15.4759 17.5016 15.4797 17.8356ZM15.2158 17.2526C15.8039 18.0773 14.5846 15.694 15.2158 17.2526ZM14.8286 16.2303C15.1887 17.0392 14.7228 15.5867 14.8286 16.2303ZM15.4598 15.2045C15.0258 14.4413 16.0074 11.8386 16.1173 13.4527C15.6596 14.7102 15.9853 15.4131 16.3032 13.7264C16.8928 12.3998 16.1763 16.3464 15.4598 15.2045ZM16.1084 11.3345C16.2972 11.1025 16.1504 11.6142 16.1084 11.3345ZM15.0249 32.6803C15.058 32.822 14.7683 32.4559 15.0249 32.6803ZM17.2564 33.8084C18.4978 34.1278 18.4918 33.6158 17.3697 33.4631C16.7669 32.9022 14.862 32.3066 16.5671 33.394C16.6794 33.6802 17.0358 33.6727 17.2564 33.8084ZM12.8499 30.8812C13.5329 31.3919 15.4254 32.3262 13.8239 31.0763C14.364 30.4485 12.7905 30.1146 13.3123 29.6941C11.9844 28.8814 12.2641 28.9543 13.1952 28.9802C11.5997 28.2662 13.4256 28.3205 13.3394 27.9544C12.7243 27.8335 10.2828 26.8692 11.7193 28.0333C10.2595 27.2897 11.3715 28.3107 10.9302 28.2034C9.43696 27.7966 12.2593 29.3403 10.6935 28.9568C11.5492 29.6348 12.9979 30.6953 11.0546 29.6743C10.7995 30.0429 12.4456 30.6016 12.8499 30.8812ZM15.1836 32.2227C18.0209 33.1364 13.7917 31.1044 15.1836 32.2227ZM27.1309 39.4601C27.1678 38.8967 26.7436 39.9408 27.1309 39.4601ZM28.359 39.9768C29.0136 39.343 28.3862 40.9877 29.4438 39.8215C29.4549 38.9866 29.412 38.4936 28.2284 39.508C27.9014 39.6895 27.7562 40.4575 28.359 39.9768ZM8.8663 27.735C8.66524 26.9447 7.45701 26.9481 8.8663 27.735ZM10.1768 28.5942C9.68978 27.7868 8.43956 27.8632 10.1768 28.5942ZM17.6374 33.0932C18.3662 33.7405 20.9824 33.5679 18.5214 33.1733C18.1575 32.6346 16.2085 32.764 17.6374 33.0932ZM27.8916 39.4269C29.0124 38.486 26.8055 39.8461 27.8916 39.4269ZM30.2231 41.0284C30.2304 40.7264 29.7399 41.1604 30.2231 41.0284ZM30.2269 40.6055C31.4683 39.2912 29.0247 40.6831 30.2269 40.6055ZM5.64087 25.0348C4.58319 23.5258 4.98372 22.8475 3.96297 21.6146C3.76918 20.6715 2.21217 18.5334 3.1578 20.7984C4.02326 22.1237 4.27987 24.1753 5.64087 25.0348ZM29.8371 40.1876C32.122 38.7117 28.9003 39.5453 29.8371 40.1876ZM31.5807 40.8706C32.7248 39.889 30.8569 40.6658 31.5807 40.8706ZM8.47776 26.0666C8.80475 25.5796 7.63218 26.0038 8.47776 26.0666ZM31.2167 40.4044C32.324 39.6908 30.9617 39.8003 31.016 40.4698L31.2167 40.4044ZM16.1899 30.933C16.1517 30.4498 15.6044 30.9737 16.1899 30.933ZM17.1181 31.467C16.8224 30.8702 16.6646 31.5608 17.1181 31.467ZM32.9934 40.8867C34.4125 39.8631 32.1343 40.6904 32.6964 41.0815L32.9934 40.8867ZM32.4499 40.6241C33.6064 39.6561 31.2303 41.0531 32.4499 40.6241ZM35.2262 42.4721C36.002 41.9529 34.2831 42.3045 35.2262 42.4721ZM9.18919 25.7153C10.2286 25.9482 13.3454 28.276 11.5072 25.8769C10.5653 25.5982 11.13 23.2963 10.1695 23.7031C10.8144 24.7807 10.6995 25.2381 9.34574 24.5601C7.64575 23.729 8.39033 24.9707 8.72332 25.3135C8.26944 25.417 9.32238 25.7068 9.18919 25.7153ZM4.45125 21.9735C4.63716 21.2027 2.73612 17.7371 3.5536 20.2363C3.84808 20.7602 3.81747 21.7525 4.45125 21.9735ZM13.1481 27.3354C13.1223 27.2714 12.6119 26.8879 13.1481 27.3354ZM14.4662 27.6425C14.4662 26.8263 13.009 27.3108 14.4662 27.6425ZM25.8955 34.8465C25.6774 34.2891 25.0339 34.8342 25.8955 34.8465ZM26.4441 35.247C26.3627 34.9352 26.1272 35.3076 26.4441 35.247ZM30.974 38.1013C31.4093 37.7797 30.4302 38.0596 30.974 38.1013ZM6.81722 22.5776C8.06365 22.0953 5.48179 22.2336 6.81722 22.5776ZM24.8893 33.9624C24.8748 33.156 24.0942 34.1635 24.8893 33.9624ZM6.32515 21.4297C7.12528 21.1598 5.58405 21.2523 6.32515 21.4297ZM8.64788 22.5552C8.63431 22.2904 8.40264 22.6565 8.64788 22.5552ZM36.9871 39.9335C38.0164 39.7252 40.3628 40.4575 40.7412 39.6611C39.491 39.6302 36.4174 38.7783 36.2719 39.8631L36.5455 39.9064L36.9871 39.9335ZM9.38646 22.7414C9.40508 21.9239 8.7492 22.7108 9.38646 22.7414ZM3.27869 18.5041C3.00125 16.9468 2.22322 18.2683 3.27869 18.5041ZM4.73469 18.8702C4.75331 18.3696 3.40178 18.4201 4.73469 18.8702ZM5.56701 19.2796C5.37952 19.5248 5.3265 19.0845 5.56701 19.2796ZM10.8055 22.6392C11.0524 22.4122 10.2213 22.4716 10.8055 22.6392ZM5.01339 18.3573C4.87167 17.181 3.3254 18.1809 5.01339 18.3573ZM2.02595 16.419C1.98397 15.8764 1.73493 16.6235 2.02595 16.419ZM2.47099 16.0838C2.39839 15.4399 2.08876 16.1649 2.47099 16.0838ZM4.9247 17.5483C5.96281 17.1415 3.03439 16.705 4.7126 17.472L4.9247 17.5483ZM37.7749 37.8399C38.4393 37.2311 36.9316 37.6515 37.7749 37.8399ZM41.7437 39.8966C42.0101 39.11 41.073 40.0001 41.7437 39.8966ZM5.17594 16.2625C5.28578 15.5005 4.35246 16.414 5.17594 16.2625ZM1.68317 13.9224C1.49569 12.8473 1.52157 10.9596 3.31561 11.5971C0.921239 12.0731 4.97394 14.5745 4.4623 12.5993C5.46948 12.6488 6.43247 12.004 5.90347 12.9815C7.88847 12.7634 9.26336 11.0422 11.1805 11.284C12.6734 11.0855 14.3059 10.9362 15.915 10.3346C17.2378 10.2396 18.5113 8.81547 17.7867 7.97084C15.9828 7.81808 14.0938 8.04375 12.1003 8.44082C9.89084 8.89943 7.88374 9.77215 5.65444 10.1471C3.48069 10.4394 6.09096 10.951 5.46822 11.0656C4.3351 11.4589 6.82069 11.724 5.32145 12.1394C4.3957 11.9633 3.43145 11.6451 3.82725 10.6685C1.74598 10.94 -0.08373 11.8029 1.56102 13.9211L1.68317 13.9224ZM6.70012 11.3677C7.18714 9.57014 9.31386 12.8473 7.49898 11.6069C7.28309 11.444 6.92548 11.3121 6.70012 11.3677ZM6.79481 10.4959C7.49899 9.97194 7.16852 10.7907 6.79481 10.4959ZM7.68868 10.5107C7.75307 9.68345 9.73681 10.9485 8.01567 10.808L7.68868 10.5107ZM8.91175 10.019C9.35931 9.49597 9.04147 10.4823 8.91175 10.019ZM9.22517 9.80939C9.96974 8.91553 13.4379 9.23842 10.8993 9.72165C10.2188 9.20875 9.69735 10.0237 9.22517 9.80939ZM13.7523 9.11153C16.0024 9.97825 13.6402 6.66886 13.7523 9.11153ZM15.0372 9.10396C15.5069 7.87363 16.8606 8.60968 15.2553 8.85619C15.2897 8.98812 15.2073 9.4925 15.0372 9.10396ZM4.66935 15.6312C6.07233 14.7717 3.17989 14.8854 4.66935 15.6312ZM5.70746 15.9184C6.19953 15.3957 4.63716 15.7063 5.70746 15.9184ZM2.64995 13.7497C3.45134 13.1333 1.70053 13.5155 2.64995 13.7497ZM44.0863 39.6722C44.1096 38.957 43.4733 39.9938 44.0863 39.6722ZM39.8758 36.798C39.9954 35.9758 39.3345 36.8697 39.8758 36.798ZM45.244 39.9496C46.3648 39.9534 48.6405 39.6005 46.202 39.6018C45.8185 39.6611 43.9717 39.6488 45.244 39.9496ZM6.61995 15.414C7.52739 15.3525 8.03903 14.4141 6.44352 14.4672C3.97149 14.2121 8.62452 15.3143 6.12662 14.9987C5.79142 15.2206 6.60007 15.4759 6.61995 15.414ZM7.41881 15.8187C7.32381 15.2367 7.13759 16.128 7.41881 15.8187ZM8.36697 13.2911C8.76025 12.8028 7.82187 13.1604 8.36697 13.2911ZM5.34859 8.24702C6.96872 7.69719 9.18319 7.07824 9.94765 8.51846C9.16962 7.58262 9.63328 6.66034 10.3681 8.03018C11.4074 9.41485 11.9276 7.40018 11.2518 6.93526C12.0226 7.89193 12.8978 8.34455 11.7673 6.99586C12.9966 5.51744 9.30755 7.18934 8.46923 7.17198C8.06617 7.35315 4.30449 8.13118 5.34859 8.24702ZM6.29801 6.42993C7.22155 5.73334 9.49251 6.8453 8.03524 5.73681C7.89226 5.61119 4.84453 6.57765 6.29801 6.42993ZM9.66516 6.56913C10.7452 6.59627 9.19929 5.11659 10.4864 5.78731C10.2756 5.09702 8.98718 4.96761 8.35719 4.69144C8.00084 5.3227 9.08187 6.57765 9.66516 6.56913ZM6.88855 3.51256C7.26226 3.00597 6.23267 3.77043 6.88855 3.51256ZM8.26471 3.84176C10.0067 3.61135 7.82061 3.09214 7.91309 3.82345L8.26471 3.84176ZM5.69515 1.83214C4.4683 0.230627 8.0021 2.10106 6.75536 0.424109C5.7062 -0.410419 4.69902 1.365 5.69515 1.83214ZM21.4335 10.3087C21.9959 9.31227 19.112 8.96476 21.055 9.95584C21.2337 10.0152 21.1933 10.3775 21.4335 10.3087Z" fill="#E7AA03"/>
<path d="M10.0134 47.4192C9.88913 47.9107 9.81194 48.7351 9.78301 49.8924C9.78301 50.1199 9.68061 50.2336 9.47542 50.2336C9.27004 50.2336 9.12719 50.1343 9.04628 49.9366C8.82643 49.4015 8.61812 49.0283 8.41957 48.8152C8.18526 48.5665 7.87376 48.416 7.48527 48.3648C7.06766 48.2986 6.02724 48.2657 4.36383 48.2657C3.98296 48.2657 3.73341 48.3062 3.61655 48.3871C3.54326 48.4381 3.50672 48.5481 3.50672 48.7168V53.6962C3.50672 53.8649 3.61283 53.945 3.82486 53.9382C4.47756 53.9306 5.42261 53.8862 6.66079 53.8061C6.90272 53.7764 7.06609 53.6978 7.15012 53.5694C7.23494 53.4412 7.3174 53.11 7.39753 52.5747C7.44853 52.2816 7.62109 52.1679 7.91422 52.2343C8.16318 52.2855 8.27007 52.3992 8.23334 52.5747C8.02795 53.5718 7.96151 54.8688 8.03479 56.4663C8.04261 56.6565 7.92184 56.7595 7.67229 56.7741C7.4669 56.7962 7.3387 56.6862 7.2875 56.4442C7.09756 55.5283 6.74326 55.039 6.22716 54.9762C5.71047 54.9145 4.86919 54.8832 3.70429 54.8832C3.57238 54.8832 3.50672 54.9305 3.50672 55.0259V59.9725C3.50672 60.339 3.64175 60.5885 3.9128 60.7198C4.12581 60.8298 4.58368 60.9289 5.2868 61.0169C5.64637 61.0534 5.80349 61.2115 5.7601 61.4894C5.71574 61.7313 5.39369 61.8267 4.79219 61.7755C3.0555 61.636 1.62268 61.6436 0.49452 61.7978C0.179112 61.8411 0.0219949 61.713 0.0219949 61.413C0.0219949 61.2221 0.179112 61.1122 0.49452 61.0831C1.21269 61.0022 1.57148 60.3718 1.57148 59.1924V49.7824C1.57148 49.2993 1.4853 48.9274 1.31352 48.6671C1.14097 48.4068 0.820284 48.1702 0.351668 47.9579C0.0585384 47.826 -0.0512875 47.6466 0.0219949 47.4192C0.0585384 47.2802 0.11736 47.203 0.197482 47.1886C0.270764 47.1665 0.465402 47.181 0.779833 47.2327C1.2418 47.306 2.33029 47.3428 4.04471 47.3428C6.06769 47.3428 7.81494 47.2984 9.28841 47.2107C9.77911 47.181 10.0249 47.2214 10.0249 47.3312C10.0249 47.3611 10.0212 47.3901 10.0134 47.4192Z" fill="#E7AA03"/>
<path d="M17.142 61.3733C17.142 61.6664 16.9771 61.7946 16.6474 61.7578C15.6367 61.6625 14.3833 61.6769 12.8885 61.8014C12.5878 61.8311 12.4031 61.8235 12.3329 61.7801C12.2634 61.7358 12.229 61.6152 12.229 61.4166C12.229 61.2412 12.4283 61.093 12.8275 60.9717C13.2276 60.8511 13.4267 60.49 13.4267 59.8892V49.9412C13.4267 49.3473 13.3405 48.9113 13.1687 48.6327C12.9962 48.3542 12.6939 48.1381 12.2618 47.9847C12.0343 47.9038 11.9206 47.79 11.9206 47.6435C11.9206 47.4236 12.0855 47.2587 12.4152 47.1489C12.9137 46.9876 13.4306 46.7389 13.9657 46.4014C14.4054 46.1374 14.684 46.006 14.8007 46.006C15.0717 46.006 15.2077 46.1923 15.2077 46.5663C15.2077 46.5374 15.1931 46.9038 15.1634 47.6655C15.1421 48.3907 15.1345 49.1052 15.1421 49.8091L15.1855 59.625C15.1855 60.0724 15.2955 60.3969 15.5153 60.5984C15.7352 60.7999 16.1129 60.9336 16.6474 60.9992C16.9771 61.0358 17.142 61.1603 17.142 61.3733Z" fill="#E7AA03"/>
<path d="M27.084 60.7251C27.084 60.8793 26.8037 61.1114 26.2435 61.4228C25.6824 61.7342 25.2335 61.89 24.8968 61.89C24.6105 61.89 24.3581 61.7511 24.1382 61.4724C23.9184 61.1939 23.764 61.055 23.6762 61.055C23.6106 61.055 23.2625 61.2052 22.6319 61.5052C22.0023 61.806 21.3679 61.9564 20.7305 61.9564C20.1298 61.9564 19.6273 61.7802 19.2244 61.429C18.7847 61.0403 18.5648 60.5129 18.5648 59.8457C18.5648 58.5778 20.016 57.6693 22.9182 57.1198C23.4159 57.0244 23.6694 56.8228 23.6762 56.5152L23.6985 55.8115C23.7427 54.6098 23.2113 54.0091 22.1045 54.0091C21.7893 54.0091 21.4909 54.2907 21.2083 54.8549C20.9267 55.4198 20.5214 55.7235 19.9938 55.7679C19.393 55.8259 19.0923 55.5733 19.0923 55.0091C19.0923 54.6571 19.5396 54.2473 20.4335 53.7777C21.3717 53.287 22.2733 53.0412 23.1381 53.0412C24.6252 53.0412 25.3617 53.7488 25.3473 55.1633L25.3029 59.6915C25.2961 60.168 25.4978 60.406 25.9075 60.406C25.9885 60.406 26.1426 60.3878 26.3693 60.3511C26.597 60.3145 26.7289 60.2962 26.7656 60.2962C26.9779 60.2962 27.084 60.4396 27.084 60.7251ZM23.6985 58.219C23.7061 58.0357 23.6633 57.9144 23.5717 57.8563C23.48 57.7977 23.3358 57.7862 23.1381 57.8229C21.3717 58.1381 20.4886 58.7136 20.4886 59.5489C20.4886 60.3915 20.9464 60.8128 21.8626 60.8128C22.229 60.8128 22.6069 60.7435 22.9946 60.6045C23.4496 60.4427 23.6762 60.2489 23.6762 60.0214L23.6985 58.219Z" fill="#E7AA03"/>
<path d="M35.2564 59.4603C35.2564 60.2373 34.9571 60.8551 34.3602 61.3129C33.7632 61.771 32.9479 62 31.9144 62C31.2259 62 30.5365 61.9267 29.848 61.7802C29.2541 61.6481 28.9098 61.5275 28.8144 61.4175C28.7556 61.3145 28.7267 60.813 28.7267 59.9114C28.7267 59.5229 28.8144 59.3214 28.9907 59.3069C29.1664 59.2847 29.3167 59.3802 29.4411 59.5924C29.9907 60.5527 30.8777 61.0329 32.1014 61.0329C33.1342 61.0329 33.6511 60.6733 33.6511 59.955C33.6511 59.6405 33.5342 59.3763 33.2991 59.1641C33.0425 58.9222 32.545 58.6398 31.8045 58.3175C30.7342 57.8413 30.0198 57.4237 29.661 57.0641C29.2723 56.6832 29.0784 56.1703 29.0784 55.5252C29.0784 54.7335 29.3823 54.1184 29.9907 53.6787C30.5548 53.2534 31.3097 53.0412 32.2548 53.0412C32.8487 53.0412 33.3908 53.0885 33.8822 53.1841C34.4099 53.2794 34.6846 53.3963 34.7067 53.5358C34.7648 53.9458 34.8861 54.5397 35.0694 55.3169C35.0915 55.4114 34.9883 55.4886 34.7616 55.5473C34.5197 55.5985 34.3587 55.558 34.2778 55.4267C33.6991 54.4809 32.9663 54.0083 32.0793 54.0083C31.0754 54.0083 30.5732 54.3306 30.5732 54.9757C30.5732 55.335 30.709 55.6205 30.9801 55.8328C31.222 56.0161 31.7899 56.3024 32.6839 56.6909C33.6219 57.0938 34.2594 57.4565 34.5969 57.7786C35.0366 58.1962 35.2564 58.7572 35.2564 59.4603Z" fill="#E7AA03"/>
<path d="M48.1885 61.384C48.1885 61.6404 48.016 61.7764 47.6717 61.7909C47.1587 61.7985 46.4876 61.835 45.6602 61.9007C45.2496 61.9816 44.9565 61.9306 44.7808 61.7473C43.6228 60.5015 42.6404 59.1969 41.8343 57.8336C41.7686 57.7168 41.6846 57.6579 41.5816 57.6579C41.4571 57.6579 41.2412 57.768 40.9336 57.9878C40.5885 58.178 40.4167 58.4496 40.4167 58.8008C40.4167 59.0503 40.4235 59.4091 40.4388 59.8787C40.4534 60.3473 40.5701 60.6549 40.79 60.8015C40.9441 60.9046 41.3 60.9848 41.8564 61.0436C42.2007 61.0878 42.3732 61.2159 42.3732 61.4282C42.3732 61.597 42.3457 61.7016 42.2908 61.7412C42.2359 61.7817 42.0907 61.7909 41.8564 61.7688C41.1235 61.7031 39.8854 61.7397 38.1412 61.8786C37.7015 61.9154 37.4633 61.8602 37.4266 61.7137C37.4121 61.6627 37.4045 61.5894 37.4045 61.4938C37.4045 61.2672 37.6283 61.0946 38.0756 60.9779C38.4785 60.8747 38.68 60.4022 38.68 59.5596V49.952C38.68 49.3512 38.6214 48.9336 38.5037 48.6993C38.3427 48.3986 38.0052 48.1641 37.4922 47.9954C37.2511 47.9153 37.1297 47.8016 37.1297 47.655C37.1297 47.442 37.3023 47.2771 37.6464 47.1604C38.1962 46.9771 38.7197 46.7244 39.2182 46.4016C39.6213 46.1381 39.8709 46.006 39.9655 46.006C40.2664 46.006 40.4167 46.1962 40.4167 46.5778C40.4167 46.5261 40.413 46.8893 40.4052 47.6657C40.3983 48.2008 40.3946 48.9192 40.3946 49.8206L40.4167 56.7016C40.4167 56.8923 40.4679 56.9871 40.5701 56.9871C40.6801 56.9871 40.8488 56.8923 41.0762 56.7016C41.6846 56.2251 42.4321 55.6023 43.3183 54.8328C43.4946 54.6497 43.5823 54.5031 43.5823 54.3931C43.5823 54.1955 43.2855 54.0558 42.6924 53.9756C42.4358 53.9457 42.3144 53.8031 42.3289 53.5465C42.351 53.2901 42.4794 53.1801 42.7137 53.2168C43.2419 53.2901 44.0114 53.3306 45.022 53.3382C45.7259 53.345 46.4259 53.3489 47.1221 53.3489C47.3488 53.3566 47.4626 53.4916 47.4626 53.7558C47.4626 54.0046 47.2832 54.1404 46.9244 54.1627C46.3594 54.184 45.8281 54.3122 45.3305 54.5473C44.6343 54.8619 43.8899 55.4153 43.0984 56.207C43.0404 56.2511 43.0105 56.306 43.0105 56.3717C43.0105 56.4741 43.135 56.7199 43.3847 57.1084C44.3007 58.5008 45.1656 59.552 45.9785 60.2633C46.4991 60.71 46.9861 60.9336 47.4403 60.9336C47.7778 60.9336 47.9869 60.9572 48.067 61.0053C48.1481 61.0528 48.1885 61.1794 48.1885 61.384Z" fill="#E7AA03"/>
</svg>
