<svg width="61" height="63" viewBox="0 0 61 63" fill="none" xmlns="http://www.w3.org/2000/svg">
<path d="M56.1206 38.0386C49.1336 39.4799 48.6533 37.1143 48.6533 37.1143C56.0304 26.1677 59.1143 12.2728 56.453 8.87206C49.1926 -0.404445 36.6246 3.98275 36.4148 4.09664L36.3473 4.10873C34.9669 3.82218 33.4221 3.65147 31.6858 3.62313C28.5243 3.57132 26.1262 4.45195 24.3064 5.83194C24.3064 5.83194 1.88625 -3.40429 2.92898 17.4482C3.15081 21.8845 9.28732 51.0146 16.6067 42.216C19.2819 38.9986 21.8668 36.2782 21.8668 36.2782C23.1506 37.1311 24.6876 37.5661 26.2988 37.4098L26.424 37.3036C26.3851 37.7031 26.4028 38.0938 26.4741 38.5563C24.5885 40.663 25.1426 41.0329 21.3732 41.8088C17.5592 42.5949 19.7998 43.9943 21.2627 44.36C23.0362 44.8035 27.1392 45.4318 29.9115 41.5509L29.8009 41.9937C30.5397 42.5854 31.0585 45.8428 30.9716 48.7956C30.8846 51.7485 30.8266 53.7757 31.4087 55.3592C31.9908 56.9427 32.571 60.5055 37.5262 59.4437C41.6667 58.5564 43.8123 56.257 44.1108 52.4216C44.3226 49.6948 44.802 50.0979 44.8322 47.66L45.2167 46.5059C45.6601 42.8096 45.2871 41.6172 47.8381 42.1718L48.458 42.2262C50.3355 42.3117 52.7928 41.9243 54.235 41.2539C57.3406 39.8127 59.1824 37.4064 56.1203 38.0386H56.1206Z" fill="#E7AA03"/>
<path d="M25.7107 19.1652C25.0788 19.0789 24.5062 19.1587 24.2166 19.3737C24.0536 19.4948 24.0033 19.635 23.9897 19.7315C23.9533 19.9872 24.136 20.2697 24.2481 20.4155C24.5655 20.8282 25.0293 21.1119 25.4883 21.1744C25.5548 21.1834 25.6209 21.1878 25.6867 21.1878C26.4523 21.1878 27.1481 20.6032 27.2094 20.1717C27.2861 19.6313 26.4863 19.271 25.7107 19.1652Z" fill="white"/>
<path d="M46.6506 19.1823C46.5904 18.7587 45.8217 18.6379 45.0924 18.7374C44.3642 18.8369 43.658 19.1593 43.7169 19.5839C43.7643 19.914 44.3719 20.4777 45.0914 20.4775C45.1521 20.4775 45.2134 20.4736 45.2752 20.4651C45.7554 20.3998 46.1078 20.1007 46.2751 19.9283C46.5302 19.6656 46.6776 19.3727 46.6506 19.1823Z" fill="white"/>
<path d="M58.6653 37.3253C58.3979 36.532 57.5371 36.2767 56.1069 36.5665C51.8603 37.4261 50.3396 36.8306 49.8401 36.47C53.141 31.5376 55.8563 25.5758 57.3211 20.0132C58.0151 17.3782 58.3985 14.9312 58.4297 12.9368C58.4643 10.7473 58.0843 9.13874 57.3002 8.15603C54.1392 4.19426 49.5001 2.06922 43.8844 2.01082C40.0238 1.96828 36.762 2.93746 36.1297 3.20991C34.798 2.88507 33.3463 2.68566 31.766 2.66022C28.8677 2.61426 26.3626 3.29484 24.2884 4.68199C23.3875 4.35319 21.0591 3.56921 18.2118 3.11936C13.289 2.34181 9.37725 2.93089 6.58564 4.87074C3.25466 7.18549 1.7169 11.3231 2.01488 17.1685C2.11514 19.1353 3.25745 25.1852 5.06043 30.9792C7.43358 38.605 10.0131 42.9221 12.7275 43.81C13.0451 43.914 13.4116 43.9867 13.8154 43.9867C14.8056 43.9867 16.0194 43.5489 17.2825 42.0596C19.3804 39.584 21.3391 37.5096 22.0611 36.7558C23.1281 37.3177 24.3001 37.6313 25.4992 37.6628C25.5013 37.6935 25.5045 37.7243 25.5073 37.7549C25.2667 38.0348 25.0694 38.28 24.9013 38.4894C24.0706 39.5237 23.8977 39.739 21.2238 40.2791C20.4633 40.433 18.4429 40.8414 18.4135 42.2303C18.3813 43.7478 20.8013 44.3851 21.0771 44.4527C22.038 44.6886 22.9636 44.805 23.8464 44.805C25.9935 44.8049 27.8828 44.1128 29.3928 42.7737C29.3462 48.1837 29.5763 53.5147 30.2385 55.1391C30.7808 56.4686 32.1059 59.7184 36.2915 59.7181C36.9055 59.7181 37.5817 59.6481 38.3253 59.4917C42.6934 58.573 44.5903 56.6794 45.3241 52.5045C45.7168 50.2734 46.3907 44.9452 46.7075 42.0874C47.3764 42.292 48.2376 42.3857 49.1685 42.3855C51.1101 42.3855 53.3504 41.981 54.7554 41.3413C56.3336 40.6224 59.1818 38.858 58.6653 37.3253ZM48.2629 18.013C48.2484 18.8567 48.13 19.6227 48.0045 20.4222C47.8695 21.2821 47.7298 22.1712 47.6946 23.2504C47.6599 24.3007 47.7937 25.3927 47.9231 26.4486C48.1844 28.5814 48.4525 30.7773 47.4144 32.9441C47.253 32.663 47.0973 32.3564 46.9545 32.0168C46.8255 31.71 46.5454 31.2172 46.1576 30.5351C44.6483 27.8803 41.114 21.6635 42.9232 19.1266C43.462 18.3713 44.8297 17.5951 48.2629 18.013ZM44.1015 3.71939C49.1331 3.82839 53.1132 5.67469 55.9313 9.20672C58.0927 11.9159 55.7127 24.2433 48.8227 34.8781C48.7547 34.7933 48.6854 34.7076 48.6137 34.6198C48.5851 34.5847 48.556 34.549 48.5266 34.5129C50.3069 31.6287 49.9588 28.7752 49.6489 26.2452C49.5216 25.207 49.4014 24.2263 49.432 23.3053C49.4636 22.3287 49.5952 21.4915 49.7224 20.6818C49.879 19.6839 50.0381 18.6516 49.9942 17.4344C50.0269 17.3068 50.0402 17.156 50.023 16.9769C49.9109 15.8097 48.5525 12.3169 45.7835 9.15516C44.269 7.42607 42.0601 5.49087 39.0443 4.18565C40.3415 3.92195 42.1155 3.67603 44.1015 3.71939ZM15.9459 40.9695C14.5544 42.6105 13.5934 42.2961 13.2774 42.1928C11.2183 41.5191 8.82925 37.2505 6.72285 30.4815C4.90021 24.6245 3.83501 18.7349 3.75079 17.0833C3.4846 11.8603 4.77541 8.22004 7.58752 6.26391C12.164 3.08052 19.6883 4.9859 22.7116 5.95234C22.6681 5.99433 22.6229 6.03372 22.5799 6.0764C17.6187 10.9911 17.7364 19.3878 17.7485 19.901C17.7481 20.099 17.7649 20.3794 17.7882 20.7651C17.8736 22.1773 18.0324 24.8058 17.6081 27.7825C17.2136 30.5486 18.0829 33.2561 19.9927 35.2105C20.1904 35.4128 20.3968 35.6028 20.61 35.7816C19.7598 36.6746 17.9123 38.6492 15.9459 40.9695ZM21.2476 34.0309C19.7083 32.4557 19.0093 30.2644 19.3295 28.0186C19.7776 24.8741 19.6121 22.1355 19.5233 20.6642C19.5109 20.4584 19.4999 20.2779 19.4933 20.1356C20.2181 19.5053 23.5769 17.74 25.972 18.2783C27.0653 18.524 27.7311 19.2539 28.008 20.5098C29.4412 27.011 28.1978 29.7208 27.1987 31.8982C26.9928 32.3468 26.7982 32.7708 26.632 33.2096L26.5033 33.5486C26.1773 34.406 25.874 35.2032 25.686 35.9602C24.0498 35.9553 22.458 35.2698 21.2476 34.0309ZM21.4988 42.7987C21.021 42.6816 20.5913 42.4783 20.3392 42.3096C20.5497 42.2124 20.9245 42.0802 21.5745 41.9489C24.7201 41.3136 25.2058 40.8654 26.2667 39.5442C26.51 39.2414 26.7857 38.8979 27.1675 38.4797C27.1676 38.4794 27.1678 38.4793 27.1679 38.4791C27.7367 37.8546 27.9967 37.9605 28.4685 38.1524C28.8508 38.3076 29.2231 38.7776 29.3741 39.2949C29.4455 39.5391 29.5258 40.0029 29.2633 40.3636C27.0471 43.4071 23.818 43.368 21.4988 42.7987ZM37.9609 57.8247C34.1128 58.6335 32.7503 56.7076 31.8524 54.5059C31.2729 53.0845 30.9882 46.6749 31.1902 39.5967C31.1929 39.5025 31.1792 39.4115 31.1527 39.326C31.1297 39.161 31.0943 38.994 31.0452 38.8259C30.7446 37.796 30.0124 36.9344 29.1339 36.5773C28.7849 36.4355 28.1441 36.1752 27.3743 36.3683C27.5385 35.7048 27.8233 34.9557 28.1319 34.1444L28.2614 33.803C28.4072 33.4183 28.5901 33.0197 28.7836 32.5979C29.8291 30.3195 31.2611 27.1991 29.707 20.1494C29.1248 17.509 27.181 16.2196 24.2342 16.519C22.4675 16.6983 20.8513 17.3975 20.0452 17.7984C19.8719 17.8846 19.7134 17.9677 19.5653 18.0488C19.7902 15.3883 20.6404 10.4165 23.8202 7.27083C25.8221 5.29036 28.4885 4.3123 31.7372 4.36496C38.1383 4.46781 42.243 7.68991 44.5596 10.3749C46.5557 12.6887 47.6366 15.0193 48.0681 16.2762C44.824 15.9528 42.6176 16.581 41.499 18.1493C39.0657 21.561 42.8302 28.183 44.6395 31.3654C44.9712 31.9488 45.2576 32.4528 45.3477 32.667C45.9369 34.0675 46.6996 35.0025 47.2565 35.6852C47.4272 35.8943 47.5929 36.0971 47.7188 36.2742C46.7363 36.5522 44.9714 37.194 45.1321 40.4029C45.0025 42.0131 44.0799 49.5515 43.6114 52.2149C42.9928 55.7335 41.6727 57.0442 37.9609 57.8247ZM54.0235 39.7949C53.0188 40.2524 51.3374 40.5956 49.7401 40.6692C47.9759 40.7503 47.0779 40.4754 46.8666 40.3063C46.7674 38.3067 47.5263 38.0977 48.3294 37.8765C48.4556 37.8416 48.5787 37.8079 48.6975 37.7671C48.7714 37.8261 48.8523 37.8846 48.9408 37.9419C50.3588 38.8599 52.888 38.959 56.4584 38.2361C56.4715 38.2334 56.4846 38.2309 56.4976 38.2283C56.0161 38.6699 55.192 39.2627 54.0235 39.7949Z" fill="white"/>
</svg>
