<?xml version="1.0" encoding="UTF-8"?>
<svg version="1.1" xmlns="http://www.w3.org/2000/svg" width="1207" height="300">
<path d="M0 0 C3.38867456 0.0227899 6.77609268 0.00924201 10.16472435 -0.01375866 C31.49614176 -0.1367515 49.4149429 1.86079908 68.56884766 11.52148438 C70.13892578 12.30652344 70.13892578 12.30652344 71.74072266 13.10742188 C94.16060869 25.26635478 111.76159972 47.23983674 119.19433594 71.56884766 C128.31509092 103.83827269 125.69148304 139.47164193 109.78588867 169.06860352 C106.37731979 175.14009224 102.27753525 180.39169464 97.56884766 185.52148438 C96.72451172 186.44703125 95.88017578 187.37257812 95.01025391 188.32617188 C76.99016114 207.20934601 51.64617106 219.11924033 25.41162109 219.79614258 C23.25056002 219.81578727 21.08937226 219.82407114 18.92822266 219.82226562 C17.17943817 219.82869331 17.17943817 219.82869331 15.39532471 219.83525085 C12.94487147 219.84095573 10.49440131 219.84152305 8.04394531 219.8371582 C4.34230925 219.83400436 0.64147873 219.85748645 -3.06005859 219.8828125 C-36.28018017 219.97348281 -63.02736274 211.3845151 -87.18115234 188.08398438 C-107.86389319 166.84462586 -115.8718064 139.43758914 -115.74365234 110.33398438 C-115.73992111 109.31576599 -115.73992111 109.31576599 -115.7361145 108.27697754 C-115.561913 77.45643416 -106.23269911 50.76556174 -84.43115234 28.52148438 C-60.87617348 5.4635443 -31.76053377 -0.21571406 0 0 Z M-55.43115234 73.52148438 C-67.47938985 87.9161951 -67.30489454 104.5482837 -66.43115234 122.52148438 C-65.30237941 134.56718202 -59.90823703 145.18761225 -51.11474609 153.44726562 C-39.01367375 162.80049622 -26.24075371 164.83895205 -11.33740234 164.78710938 C-10.11009399 164.78902283 -8.88278564 164.79093628 -7.61828613 164.79290771 C-5.03653761 164.79426208 -2.45478211 164.79061825 0.12695312 164.78222656 C4.05696043 164.77151677 7.98651066 164.7821478 11.91650391 164.79492188 C14.43603616 164.79360015 16.95556812 164.79103748 19.47509766 164.78710938 C20.63891968 164.79115784 21.8027417 164.7952063 23.00183105 164.79937744 C37.72261085 164.71563023 50.26216635 161.35338116 61.56884766 151.52148438 C72.47052755 139.28758542 74.76167053 127.39864954 74.88134766 111.52148438 C74.91035156 110.26980469 74.93935547 109.018125 74.96923828 107.72851562 C75.06498338 93.51405132 71.33156354 81.22310326 61.76025391 70.49414062 C50.08757399 59.40388133 36.16921021 57.20947812 20.73291016 57.22070312 C19.41777435 57.216418 18.10263855 57.21213287 16.74765015 57.2077179 C13.97576847 57.20029857 11.20401426 57.2005154 8.43212891 57.20581055 C4.90995472 57.21159775 1.38830768 57.19467187 -2.13377953 57.17146587 C-5.5324032 57.15304347 -8.93091676 57.15691672 -12.32958984 57.15820312 C-13.57888275 57.14899338 -14.82817566 57.13978363 -16.11532593 57.1302948 C-32.32303108 57.21503175 -44.18069628 61.83127107 -55.43115234 73.52148438 Z " fill="#158FC6" transform="translate(831.43115234375,3.478515625)"/>
<path d="M0 0 C1.08410156 -0.06058594 2.16820312 -0.12117187 3.28515625 -0.18359375 C13.30186789 1.51978288 20.53977444 10.63117664 27.38891602 17.56420898 C28.50959934 18.68738038 29.63095652 19.80987976 30.75292969 20.9317627 C33.15375684 23.33528056 35.54978232 25.74344678 37.94207954 28.15545464 C41.73069462 31.9752795 45.52982812 35.78452856 49.33030701 39.59254456 C55.34348588 45.62017592 61.34940075 51.65498713 67.35233492 57.69281965 C78.09647939 68.49896865 88.85283827 79.29295295 99.61203521 90.0841127 C103.38201491 93.86586729 107.1487859 97.65078036 110.91284001 101.43843257 C113.26074754 103.8002471 115.61070715 106.16001247 117.96111298 108.51934052 C119.04393095 109.60719204 120.12586491 110.69592438 121.20680809 111.78563881 C122.69221825 113.2828996 124.18083562 114.77690364 125.67018127 116.27024841 C126.49916711 117.1040525 127.32815294 117.93785658 128.18225956 118.79692745 C131.65819698 122.12820294 135.31420957 125.26712087 138.9375 128.4375 C144.8775 134.3775 150.8175 140.3175 156.9375 146.4375 C157.2675 98.2575 157.5975 50.0775 157.9375 0.4375 C169.1575 0.4375 180.3775 0.4375 191.9375 0.4375 C192.03011442 25.59376153 192.10148799 50.74998197 192.14474869 75.9063797 C192.1653697 87.58705959 192.19348164 99.26763156 192.23925781 110.94824219 C192.27913951 121.12962844 192.30493616 131.31093654 192.31385398 141.49239874 C192.31906643 146.88291442 192.33130826 152.27320652 192.36042023 157.66365051 C192.38761022 162.7394363 192.39593767 167.81490682 192.38993073 172.89075851 C192.39102935 174.75153187 192.3989618 176.61231599 192.4143219 178.47302628 C192.43430617 181.01922605 192.42940888 183.56424493 192.41851807 186.11047363 C192.43599512 187.20778549 192.43599512 187.20778549 192.45382524 188.32726526 C192.39141236 193.74795603 190.89101872 197.88597699 187.9375 202.4375 C183.90801675 206.36366316 180.21951142 208.2222159 174.625 208.75 C159.40093982 207.45982541 148.26358058 191.92834387 138.02661133 181.65698242 C136.11327806 179.73824495 134.19459496 177.82497246 132.27539062 175.91210938 C131.03092897 174.66698745 129.78677726 173.42155564 128.54296875 172.17578125 C127.9824028 171.61723953 127.42183685 171.05869781 126.84428406 170.48323059 C124.06377154 167.68652749 121.39932814 164.83916554 118.83953857 161.83854675 C114.51954839 156.88443541 109.89419924 152.26171428 105.23852539 147.625 C104.26626479 146.65304643 103.29422534 145.68087161 102.32238674 144.70849609 C99.74139225 142.12727772 97.15741963 139.54906109 94.57277679 136.97149658 C92.13949543 134.54395014 89.70896908 132.11365415 87.27819824 129.68359375 C80.18820087 122.59882405 73.09383885 115.5184233 66 108.4375 C42.2090625 84.6775 42.2090625 84.6775 17.9375 60.4375 C17.6075 108.2875 17.2775 156.1375 16.9375 205.4375 C5.3875 205.4375 -6.1625 205.4375 -18.0625 205.4375 C-18.15283304 180.82000916 -18.22650116 156.20265274 -18.26974869 131.58503819 C-18.29036399 120.15436935 -18.31846499 108.72381088 -18.36425781 97.29321289 C-18.40415702 87.32899381 -18.42994031 77.36485468 -18.43885398 67.40055794 C-18.44406347 62.12570322 -18.45628639 56.8510772 -18.48542023 51.57629585 C-18.51263793 46.6080268 -18.52093211 41.64007993 -18.51493073 36.67174339 C-18.51602812 34.85170362 -18.52394402 33.03165269 -18.5393219 31.21167755 C-18.69917568 11.31116807 -18.69917568 11.31116807 -12.5442543 4.84165287 C-8.31802867 1.14832723 -5.51605035 0.21290019 0 0 Z " fill="#000000" transform="translate(1014.0625,3.5625)"/>
<path d="M0 0 C23.57442054 -0.09034076 47.14870063 -0.16400563 70.72325039 -0.20724869 C81.66964865 -0.22786206 92.61593161 -0.25595933 103.56225586 -0.30175781 C113.10457327 -0.34166298 122.64680717 -0.36744172 132.18920571 -0.37635398 C137.2404995 -0.38156247 142.2915544 -0.39377894 147.34277153 -0.42292023 C152.10092572 -0.45014739 156.85874346 -0.45843023 161.61696815 -0.45243073 C163.35960597 -0.4535277 165.10225549 -0.461438 166.84482574 -0.4768219 C186.1155976 -0.63854989 186.1155976 -0.63854989 192.59871578 5.5182457 C196.23852396 9.69175838 197.16892483 12.31796375 197.25 17.75 C197.27578125 18.77609375 197.3015625 19.8021875 197.328125 20.859375 C196.72731661 26.60996962 193.76077901 30.61270372 189.91445923 34.76693726 C189.11504536 35.63063305 188.31563148 36.49432884 187.49199295 37.38419724 C183.51193537 41.56199623 179.46116635 45.66151251 175.36865234 49.72900391 C173.96162694 51.13378788 172.55460166 52.53857198 171.14758134 53.94336104 C169.65560132 55.43200032 168.16237741 56.91938113 166.66877365 58.40639114 C163.53805563 61.52343084 160.41129509 64.64442105 157.2850647 67.76596069 C150.65135954 74.38863324 144.01340678 81.00704076 137.375 87.625 C130.19809845 94.7798121 123.02196733 101.93538749 115.85071719 109.09586465 C112.74977424 112.19185986 109.64641885 115.28540917 106.54111838 118.37703347 C105.07302586 119.83943064 103.60610825 121.30299447 102.13969421 122.76707458 C100.36164845 124.54227699 98.58182774 126.31570435 96.79978943 128.0868988 C96.00382858 128.88278915 95.20786774 129.6786795 94.38778687 130.49868774 C93.70536612 131.17888788 93.02294537 131.85908802 92.3198452 132.55990028 C89.10559397 135.94076963 86.07188613 139.48927299 83 143 C74.75 151.25 66.5 159.5 58 168 C126.805 168.495 126.805 168.495 197 169 C197 180.22 197 191.44 197 203 C172.88677362 203.09031691 148.77368433 203.16399176 124.66033173 203.20724869 C113.46392254 203.22786806 102.26762597 203.25597683 91.07128906 203.30175781 C81.31180448 203.34164457 71.55240145 203.36743736 61.79283762 203.37635398 C56.62588307 203.38156558 51.45916183 203.39380193 46.2922821 203.42292023 C41.42661134 203.45011826 36.5612695 203.45843608 31.69552994 203.45243073 C29.91215857 203.45352899 28.12877594 203.46145669 26.34547043 203.4768219 C23.90435206 203.49681899 21.46446419 203.49190451 19.02331543 203.48101807 C18.32290178 203.49266943 17.62248813 203.5043208 16.90084982 203.51632524 C11.51667557 203.45173044 7.4579339 201.87461758 3 199 C-1.0838181 194.808713 -2.75205686 191.08980644 -3.4375 185.3125 C-3.13915064 175.76447591 3.70592512 168.57535248 10.16748047 162.28076172 C11.38065948 161.06889694 11.38065948 161.06889694 12.61834717 159.83255005 C15.27307527 157.18634591 17.94493743 154.55818563 20.6171875 151.9296875 C22.47773959 150.08101783 24.33710648 148.23115466 26.19534302 146.38015747 C30.57927435 142.01684715 34.97535575 137.6660078 39.37644017 133.32000649 C45.82028841 126.95581711 52.24677984 120.57413902 58.67186165 114.19101143 C59.14580923 113.7201747 59.61975681 113.24933798 60.10806644 112.76423347 C60.57837162 112.29701476 61.04867679 111.82979604 61.53323364 111.34841919 C65.19303636 107.71271811 68.85826687 104.08263065 72.52804565 100.45700073 C74.20996465 98.79150785 75.89186079 97.12599189 77.57373047 95.46044922 C78.32617035 94.71945984 79.07861023 93.97847046 79.85385132 93.21502686 C80.56303711 92.5116922 81.2722229 91.80835754 82.00289917 91.08370972 C82.60939741 90.48462736 83.21589565 89.88554501 83.84077263 89.26830864 C87.00310506 85.94621942 89.97972261 82.45174559 93 79 C107.19 64.81 121.38 50.62 136 36 C91.12 35.67 46.24 35.34 0 35 C0 23.45 0 11.9 0 0 Z " fill="#000000" transform="translate(501,6)"/>
<path d="M0 0 C37.0940625 -0.0928125 37.0940625 -0.0928125 74.9375 -0.1875 C86.60855103 -0.22846802 86.60855103 -0.22846802 98.51538086 -0.27026367 C108.08703613 -0.28381348 108.08703613 -0.28381348 112.58155823 -0.28633118 C115.69087778 -0.28910287 118.80004045 -0.30025113 121.90931702 -0.31672668 C125.89669118 -0.33756957 129.8838429 -0.34342533 133.87126648 -0.33921683 C135.32132792 -0.34009457 136.77139854 -0.34588442 138.22141254 -0.35764539 C160.74243833 -0.53156945 181.72984123 4.52369505 198.546875 20.3359375 C212.57973609 35.57544588 217.62609669 55.5269916 217.1875 75.9765625 C215.84560371 97.6146401 208.84858486 116.05140403 193 131 C179.32660717 142.60747522 161.38666233 147.18941163 143.76000977 147.11352539 C142.86165909 147.11367142 141.96330841 147.11381744 141.03773499 147.1139679 C138.08893358 147.1132751 135.14019653 147.10551247 132.19140625 147.09765625 C130.13874852 147.09578982 128.08609034 147.09436698 126.03343201 147.09336853 C120.64615639 147.08956107 115.25890798 147.07974597 109.87164307 147.06866455 C104.3682085 147.05841229 98.8647695 147.05386275 93.36132812 147.04882812 C82.57420491 147.03812205 71.78710898 147.02053965 61 147 C61 135.45 61 123.9 61 112 C63.59770264 111.9906543 66.19540527 111.98130859 68.87182617 111.97167969 C77.49728157 111.93776793 86.1225013 111.88214083 94.74776745 111.81609726 C99.97240054 111.77674846 105.19686825 111.74449852 110.42163086 111.72900391 C115.47283324 111.71375395 120.52358058 111.67916203 125.57457924 111.63169098 C127.49243506 111.61696267 129.41035587 111.60896395 131.32826805 111.60811615 C145.5394012 111.59552741 159.84665269 111.11687463 171 101 C179.62918253 91.11911187 181.0162664 79.63406587 180.21142578 66.99316406 C179.37368832 59.09560216 175.69074102 51.53333755 170 46 C159.23318701 38.12654881 148.86123037 36.86757383 135.92407227 36.79467773 C134.81306373 36.78464501 133.70205519 36.77461229 132.55737972 36.76427555 C128.97707612 36.73300578 125.39676141 36.708167 121.81640625 36.68359375 C119.59956511 36.66517968 117.38272744 36.64634243 115.16589355 36.6270752 C106.96480347 36.55875753 98.76364687 36.49862159 90.5625 36.4375 C72.226875 36.293125 53.89125 36.14875 35 36 C35 91.11 35 146.22 35 203 C23.45 203 11.9 203 0 203 C0 136.01 0 69.02 0 0 Z " fill="#000000" transform="translate(6,6)"/>
<path d="M0 0 C3.38867456 0.0227899 6.77609268 0.00924201 10.16472435 -0.01375866 C31.49614176 -0.1367515 49.4149429 1.86079908 68.56884766 11.52148438 C70.13892578 12.30652344 70.13892578 12.30652344 71.74072266 13.10742188 C84.44355574 19.99652447 96.52140175 30.44154923 104.56884766 42.52148438 C105.48523168 46.09674191 105.74763309 49.55986063 105.88525391 53.24023438 C105.9480957 54.88765625 105.9480957 54.88765625 106.01220703 56.56835938 C106.05152344 57.70789062 106.09083984 58.84742188 106.13134766 60.02148438 C106.17453125 61.13007812 106.21771484 62.23867187 106.26220703 63.38085938 C107.31497587 92.12311965 102.92679723 116.07153436 83.17041016 138.20898438 C78.26200495 143.39087843 73.28940633 147.70204381 67.31884766 151.58398438 C66.46987915 152.13892578 66.46987915 152.13892578 65.60375977 152.70507812 C61.66681699 155.14652187 58.01876237 156.43159409 53.56884766 157.52148438 C58.19384766 152.64648438 58.19384766 152.64648438 61.56884766 151.52148438 C62.62737924 149.67073367 62.62737924 149.67073367 63.56884766 147.52148438 C64.51727834 146.20181083 65.47640353 144.88978332 66.44384766 143.58398438 C73.08866883 133.58689783 74.21827059 122.76363663 74.06884766 111.02148438 C74.08431641 109.80589844 74.09978516 108.5903125 74.11572266 107.33789062 C74.05648663 93.46185113 70.23677956 81.24706206 60.98291016 70.71679688 C49.72481884 60.11771579 35.78780772 58.21490586 21.04931641 58.15039062 C19.75552567 58.14136215 18.46173492 58.13233368 17.1287384 58.12303162 C14.39463834 58.1066221 11.66065938 58.09885805 8.92651367 58.09594727 C6.16570127 58.09166831 3.4058348 58.07100674 0.64526367 58.03442383 C-26.52040591 57.68109154 -51.63671484 60.44167593 -72.43115234 79.52148438 C-73.18654297 80.18535156 -73.94193359 80.84921875 -74.72021484 81.53320312 C-90.97020875 96.63843801 -99.49828405 118.61095234 -100.43115234 140.52148438 C-100.40551718 145.75590719 -100.21328188 150.97979916 -99.99365234 156.20898438 C-99.94027324 157.60414215 -99.88753476 158.99932459 -99.83544922 160.39453125 C-99.70695298 163.77047788 -99.57204894 167.14603641 -99.43115234 170.52148438 C-110.78683654 159.80483029 -114.98654022 137.27890665 -115.55371094 122.28051758 C-116.32355501 87.03332314 -110.98142643 56.60788432 -85.97070312 30.09228516 C-62.29267391 5.93363625 -32.58196722 -0.22129315 0 0 Z " fill="#1C5EB7" transform="translate(831.43115234375,3.478515625)"/>
<path d="M0 0 C6.77553924 -0.33182842 13.54896328 -0.55813508 20.33081055 -0.71411133 C22.6330389 -0.77916974 24.9347366 -0.86765522 27.23510742 -0.98071289 C47.40835767 -1.94675586 47.40835767 -1.94675586 52.875 2.76269531 C55.77968886 5.88843099 57.85560128 9.32315843 60 13 C61.42745504 14.81636386 62.88093522 16.6130193 64.375 18.375 C65.45394531 19.70144531 65.45394531 19.70144531 66.5546875 21.0546875 C70.03554598 25.24728702 73.62151493 29.34569493 77.20263672 33.45263672 C81.10409054 37.93731517 84.88477907 42.50472708 88.625 47.125 C91.5249597 50.63547753 94.50761195 54.06829935 97.5 57.5 C101.98529721 62.64453998 106.36687872 67.85266258 110.6640625 73.15625 C113.54475237 76.66317679 116.48429624 80.11658237 119.4375 83.5625 C119.95836182 84.17101807 120.47922363 84.77953613 121.01586914 85.40649414 C122.95796099 87.66634207 124.89221557 89.89221557 127 92 C135.87803836 81.85845504 135.87803836 81.85845504 144.5 71.5 C148.57757127 66.46651459 152.80505915 61.57666691 157.05810547 56.69189453 C161.98012092 51.03580629 166.83072133 45.32231652 171.66162109 39.58837891 C173.91767427 36.91091047 176.17706606 34.23627043 178.4375 31.5625 C178.88738281 31.03011719 179.33726562 30.49773438 179.80078125 29.94921875 C182.2039948 27.10905728 184.61682823 24.27764111 187.04296875 21.45703125 C187.55738525 20.85882568 188.07180176 20.26062012 188.60180664 19.64428711 C189.56719151 18.52293046 190.53369033 17.40253107 191.50170898 16.28344727 C191.95747314 15.75420654 192.4132373 15.22496582 192.8828125 14.6796875 C193.38401611 14.12804932 193.88521973 13.57641113 194.40161133 13.00805664 C196.13335267 10.95338208 196.13335267 10.95338208 197.54174805 8.14624023 C200.0960068 3.96498361 202.36447674 0.6381187 207.35144043 -0.56933594 C214.41031707 -1.38961977 221.48147287 -0.99951261 228.5625 -0.6875 C230.7375067 -0.63227048 232.91264782 -0.58208958 235.08789062 -0.53710938 C240.39487864 -0.41641798 245.69681214 -0.2328566 251 0 C249.68867252 2.69672744 248.40366098 4.89233169 246.41796875 7.14453125 C245.64827759 8.02443726 245.64827759 8.02443726 244.86303711 8.92211914 C244.31010986 9.54594482 243.75718262 10.16977051 243.1875 10.8125 C242.00511024 12.16137235 240.82282138 13.51033316 239.640625 14.859375 C239.03541016 15.54708984 238.43019531 16.23480469 237.80664062 16.94335938 C235.00164201 20.13650914 232.21940761 23.34923664 229.4375 26.5625 C228.9002832 27.1822168 228.36306641 27.80193359 227.80957031 28.44042969 C222.67812442 34.36275465 217.57819168 40.31183992 212.48388672 46.26611328 C209.99104476 49.17894046 207.49537234 52.08934061 205 55 C203.9999866 56.16665518 202.99998659 57.33332184 202 58.5 C185.9296875 77.24869792 169.859375 95.99739583 153.7890625 114.74609375 C153.36453796 115.26303802 152.94001343 115.7799823 152.50262451 116.31259155 C151 118 151 118 149.44342041 119.22512817 C146.18969684 122.06714757 145.10211506 124.34109029 144.4357605 128.64082336 C144.13001248 133.33994534 144.16794629 138.03941105 144.1953125 142.74609375 C144.18405443 144.48488704 144.17017032 146.22366513 144.15377808 147.9624176 C144.11781162 152.52129545 144.11735739 157.07950169 144.12445068 161.63848877 C144.12552602 167.1177938 144.08222621 172.59690842 144.04641724 178.07607269 C143.9970602 186.38439587 144.00386018 194.6909704 144 203 C131.79 203 119.58 203 107 203 C107.06574219 194.74548828 107.06574219 194.74548828 107.1328125 186.32421875 C107.1383093 182.81947504 107.14084376 179.31522216 107.1328125 175.81054688 C107.12036754 170.25812056 107.11836514 164.70717644 107.18164062 159.1550293 C107.23202026 154.67389291 107.23298529 150.19512427 107.20095444 145.71384621 C107.19722859 144.01194942 107.2107419 142.30991721 107.24249649 140.60831261 C107.3958097 131.78927496 107.4224534 125.55649446 101.21044922 118.71411133 C99.48428588 117.13104581 97.7476381 115.55932594 96 114 C94.44695363 112.17273017 92.92150632 110.32127103 91.4375 108.4375 C88.55151207 104.86171531 85.59555196 101.39598682 82.5 98 C78.58108748 93.70008209 74.90829131 89.24080453 71.25 84.71875 C69.06498431 82.07852271 66.80828609 79.5327028 64.5 77 C60.58108748 72.70008209 56.90829131 68.24080453 53.25 63.71875 C51.06498431 61.07852271 48.80828609 58.5327028 46.5 56 C43.47717579 52.68010514 40.57487839 49.30235888 37.75 45.8125 C34.1452974 41.36147592 30.44625735 37.00805071 26.6875 32.6875 C26.13715088 32.05473145 25.58680176 31.42196289 25.01977539 30.77001953 C23.90133498 29.48458692 22.78276375 28.19926812 21.6640625 26.9140625 C0 1.99530516 0 1.99530516 0 0 Z " fill="#000000" transform="translate(233,6)"/>
<path d="M0 0 C8 0 8 0 9.7434082 1.21484375 C10.09234131 1.78332031 10.44127441 2.35179687 10.80078125 2.9375 C11.21545654 3.57816406 11.63013184 4.21882812 12.05737305 4.87890625 C12.67866089 5.92884766 12.67866089 5.92884766 13.3125 7 C14.24134018 8.45887315 15.17105538 9.9171895 16.1015625 11.375 C16.57239258 12.13296875 17.04322266 12.8909375 17.52832031 13.671875 C19.96562428 17.5275702 22.58468751 21.25508122 25.1875 25 C26.775625 27.31 28.36375 29.62 30 32 C30.33 21.44 30.66 10.88 31 0 C33.31 0 35.62 0 38 0 C38 15.51 38 31.02 38 47 C35.69 47 33.38 47 31 47 C28.83203716 44.81950558 27.39079617 43.03298887 25.75 40.5 C25.29326904 39.83669678 24.83653809 39.17339355 24.3659668 38.48999023 C23.39642023 37.07690131 22.43728425 35.65662239 21.48779297 34.22998047 C19.50804968 31.2626396 17.4704417 28.33692247 15.43383789 25.40844727 C13.27373384 22.28294812 11.13943181 19.13968565 9 16 C8.67 26.23 8.34 36.46 8 47 C5.36 47 2.72 47 0 47 C0 31.49 0 15.98 0 0 Z " fill="#000000" transform="translate(433,249)"/>
<path d="M0 0 C23 0 23 0 31 4 C37.19026625 10.32483725 38.88676472 16.33121028 39 25 C38.29966922 32.57024228 36.2607634 37.99006456 30.5625 43.25 C20.63358653 50.0307214 14.02973553 47 0 47 C0 31.49 0 15.98 0 0 Z M8 7 C8 17.89 8 28.78 8 40 C19.3025184 40.94955207 19.3025184 40.94955207 27 36 C30.77076999 30.79893795 31.42458812 26.36882181 31 20 C29.7461528 15.0675864 28.10508378 11.2070967 24 8 C19.4715658 6.31483984 19.4715658 6.31483984 8 7 Z " fill="#000000" transform="translate(813,249)"/>
<path d="M0 0 C4.73144605 3.17504932 7.30445974 7.5307013 9.453125 12.70703125 C11.13497398 22.62994022 10.44561003 31.14521634 4.953125 39.70703125 C0.22175516 44.12983349 -4.90275086 46.55261914 -11.421875 46.89453125 C-17.31718112 46.56529949 -22.53587806 44.79072475 -26.75 40.55859375 C-32.72457424 32.98886619 -33.70265244 25.87365734 -32.921875 16.39453125 C-31.50497435 9.12184591 -28.47734414 3.90937528 -22.359375 -0.41796875 C-15.05007059 -3.97891192 -7.21947064 -3.57187096 0 0 Z M-19.921875 7.39453125 C-24.97915293 13.78267179 -25.71199536 19.46085696 -24.921875 27.39453125 C-23.68590716 31.32017004 -21.91413838 34.33383591 -19.109375 37.33203125 C-14.56098435 39.54124957 -11.07358987 39.7263813 -6.234375 38.33203125 C-1.5837595 35.61185992 0.39479353 32.44452567 2.078125 27.39453125 C2.7874116 20.19701645 2.33400015 14.38809937 -1.921875 8.39453125 C-7.07939507 2.88132014 -13.87731197 3.85903212 -19.921875 7.39453125 Z " fill="#000000" transform="translate(184.921875,250.60546875)"/>
<path d="M0 0 C5.14961491 3.85784711 7.64960732 8.68937257 8.9921875 14.9140625 C9.97718053 23.61483422 8.4293188 30.22234414 4.7421875 38.0390625 C0.75052943 42.4401214 -4.18416865 45.11341382 -10.06640625 46.140625 C-16.28615731 46.37777322 -21.96809873 45.15850706 -26.6796875 40.95703125 C-33.33179819 33.76890338 -34.21628224 27.14137551 -34.07421875 17.5 C-33.39545635 10.7403662 -30.79156862 5.32202323 -25.7578125 0.7265625 C-17.31584367 -4.78656 -8.75390027 -4.88145841 0 0 Z M-20.6953125 6.7265625 C-25.99248209 12.30253049 -25.98416228 17.15408434 -25.91015625 24.5546875 C-25.55902014 29.73873329 -23.99232818 32.42954682 -20.3828125 36.0390625 C-16.71661244 38.3410951 -13.99147818 39.18846043 -9.67578125 38.3203125 C-5.7422299 37.09427052 -3.94632914 36.02906974 -1.2578125 32.7890625 C2.0319757 26.34107762 2.29550294 19.85545336 0.1171875 12.9765625 C-2.55993764 8.17620018 -4.69223951 5.32006561 -10.0703125 3.7265625 C-14.42975853 3.7265625 -16.90870312 4.5831987 -20.6953125 6.7265625 Z " fill="#000000" transform="translate(409.6953125,251.2734375)"/>
<path d="M0 0 C3.7308481 2.09999833 5.75430151 4.50860302 7.6875 8.375 C7.6875 9.695 7.6875 11.015 7.6875 12.375 C2.32836809 12.81427311 2.32836809 12.81427311 -0.3125 12.375 C-2.1875 9.9375 -2.1875 9.9375 -3.3125 7.375 C-6.91395892 5.57427054 -10.88702004 5.96236106 -14.6875 7.0625 C-16.52613295 8.32355534 -16.52613295 8.32355534 -17.25 10.8125 C-17.56215761 13.32961059 -17.56215761 13.32961059 -16.26953125 14.890625 C-13.4819741 17.00493981 -10.3749693 17.73503408 -7.0625 18.6875 C4.24364819 22.23943151 4.24364819 22.23943151 7.6875 27.375 C9.46347133 31.71125487 9.01329337 35.35179354 7.25 39.625 C5.1598484 43.2243119 2.92750463 45.14783389 -0.90625 46.75 C-7.28211771 48.40606953 -13.84567126 48.42314152 -19.875 45.625 C-22.74238681 43.91765557 -24.82378682 42.43999772 -26.3125 39.375 C-27 35.625 -27 35.625 -27.3125 32.375 C-24.6725 32.375 -22.0325 32.375 -19.3125 32.375 C-19.065 33.15875 -18.8175 33.9425 -18.5625 34.75 C-17.54180976 37.39919575 -17.54180976 37.39919575 -15.625 38.6875 C-11.26534499 39.98361365 -7.64294614 39.9245321 -3.4375 38.1875 C-0.8728835 36.00003298 -0.5801756 34.67633235 -0.3125 31.375 C-4.24637691 27.92159661 -8.82829119 26.79074239 -13.73632812 25.35742188 C-18.80955077 23.78507905 -22.63032365 21.89576872 -25.62890625 17.40234375 C-26.89384306 13.65090258 -26.343367 10.14137027 -25.3125 6.375 C-19.27689775 -1.7908148 -9.11282214 -4.04826114 0 0 Z " fill="#000000" transform="translate(131.3125,249.625)"/>
<path d="M0 0 C2.93794284 2.58836483 4.87581218 4.85747204 5.3125 8.875 C5.209375 9.57625 5.10625 10.2775 5 11 C2.69 11 0.38 11 -2 11 C-2.2475 10.38125 -2.495 9.7625 -2.75 9.125 C-4.28822496 6.51001756 -5.12350424 5.93291754 -8 5 C-12.25589957 4.69600717 -15.35176961 4.66513255 -19 7 C-19.33397787 9.87413125 -19.33397787 9.87413125 -19 13 C-15.95570518 15.97076112 -12.66611391 16.84008795 -8.625 17.9375 C-2.9611301 19.60932692 1.6204642 20.97149989 5.375 25.75 C6.7760011 30.79360395 6.65765291 34.57508536 4.5 39.25 C0.6541351 43.4804514 -3.00143837 45.61656324 -8.71875 46.34765625 C-15.1032279 46.54936366 -20.5792962 46.10001282 -25.5 41.640625 C-28.21122997 38.65211014 -29.76852958 36.0507323 -30 32 C-29 31 -29 31 -25.6875 30.5625 C-24.470625 30.706875 -23.25375 30.85125 -22 31 C-19.75 33.9375 -19.75 33.9375 -18 37 C-13.79355928 38.40214691 -9.92906325 38.50764822 -5.625 37.375 C-3.71555339 36.00602568 -3.71555339 36.00602568 -3.0625 33.0625 C-2.71532062 30.12118316 -2.71532062 30.12118316 -4.00390625 28.45703125 C-7.51223096 25.89616018 -11.86216439 25.14562415 -16.01953125 24.0703125 C-20.91056742 22.68588513 -23.60288097 20.96545833 -27 17 C-27.33 16.67 -27.66 16.34 -28 16 C-28.64014643 11.77017171 -28.89822167 7.70941841 -26.87109375 3.8515625 C-20.06001148 -4.57781869 -9.12632633 -5.26518826 0 0 Z " fill="#000000" transform="translate(515,251)"/>
<path d="M0 0 C2.64 0 5.28 0 8 0 C8.01401855 1.50566528 8.01401855 1.50566528 8.02832031 3.04174805 C8.06830231 6.7788471 8.13408256 10.51512998 8.20751953 14.25170898 C8.23568186 15.86651089 8.25692 17.48144943 8.27099609 19.09643555 C8.29249258 21.42307237 8.33917211 23.74807477 8.390625 26.07421875 C8.39185364 26.79212082 8.39308228 27.51002289 8.39434814 28.24967957 C8.53448953 33.08480786 9.55925793 35.60403195 13 39 C16.96570689 40.66977132 20.39211485 40.21388552 24.375 38.8125 C27.22421553 36.84518452 27.84189375 36.1744578 29 33 C29.23505111 30.43207563 29.37171528 27.96121582 29.4140625 25.390625 C29.43342865 24.66381531 29.4527948 23.93700562 29.4727478 23.18817139 C29.53234271 20.87556552 29.57884758 18.56290933 29.625 16.25 C29.66319836 14.67836418 29.70225117 13.10674887 29.7421875 11.53515625 C29.83802743 7.69027158 29.92213195 3.84528893 30 0 C32.64 0 35.28 0 38 0 C38.074557 4.71391399 38.12879273 9.42747929 38.16479492 14.1418457 C38.17981466 15.74314356 38.20023663 17.34440075 38.22631836 18.94555664 C38.26300438 21.25677571 38.27979435 23.56744756 38.29296875 25.87890625 C38.30845261 26.58648575 38.32393646 27.29406525 38.33988953 28.02308655 C38.34175318 33.61730821 37.22547301 38.34280955 33.5703125 42.70703125 C27.10892832 47.64911699 22.03285247 48.80454234 14 48 C8.17259721 46.18490733 4.33489946 43.41262336 0.87548828 38.35644531 C-0.4232698 34.86073615 -0.2448113 31.41138705 -0.1953125 27.734375 C-0.1924826 26.94097717 -0.18965271 26.14757935 -0.18673706 25.33013916 C-0.17556779 22.80327083 -0.15046944 20.27676068 -0.125 17.75 C-0.11496598 16.0338593 -0.10584087 14.31771302 -0.09765625 12.6015625 C-0.07563914 8.40090426 -0.04113187 4.2005128 0 0 Z " fill="#000000" transform="translate(252,249)"/>
<path d="M0 0 C5.754375 -0.12375 5.754375 -0.12375 11.625 -0.25 C12.82334473 -0.28641602 14.02168945 -0.32283203 15.25634766 -0.36035156 C21.50036769 -0.42536067 25.2910361 -0.25300412 30 4 C33.47550532 7.95488537 34.37659202 11.52368491 34.26953125 16.80859375 C33.69792602 21.45599276 31.95830073 25.24835412 28.4453125 28.390625 C22.15718725 32.222873 15.10724745 31.27335567 8 31 C8 36.28 8 41.56 8 47 C5.36 47 2.72 47 0 47 C0 31.49 0 15.98 0 0 Z M8 7 C8 12.61 8 18.22 8 24 C10.8153125 24.0928125 10.8153125 24.0928125 13.6875 24.1875 C15.27111328 24.23970703 15.27111328 24.23970703 16.88671875 24.29296875 C20.44288847 23.95832292 22.23156052 23.24159103 25 21 C26.2663874 18.00773951 26.3377616 15.21436456 26 12 C24.57210724 8.65223796 24.57210724 8.65223796 21 7 C16.57736871 6.59356714 12.46047764 6.77472335 8 7 Z " fill="#000000" transform="translate(558,249)"/>
<path d="M0 0 C2.97 0 5.94 0 9 0 C12.96 11.55 16.92 23.1 21 35 C24.82685176 25.94945862 24.82685176 25.94945862 28.23828125 16.796875 C28.58310547 15.79785156 28.92792969 14.79882812 29.28320312 13.76953125 C29.62287109 12.77308594 29.96253906 11.77664063 30.3125 10.75 C30.67150391 9.70714844 31.03050781 8.66429687 31.40039062 7.58984375 C32.27038527 5.06105932 33.1368785 2.53113678 34 0 C36.97 0 39.94 0 43 0 C37.63886157 15.78980983 32.25218112 31.53516789 26 47 C23.03 47 20.06 47 17 47 C13.08695633 38.00909456 9.73120081 28.87463593 6.49584961 19.62329102 C5.67499619 17.27675594 4.84862206 14.93221709 4.02148438 12.58789062 C3.49707969 11.09646529 2.97297928 9.60493292 2.44921875 8.11328125 C2.20241867 7.41237869 1.95561859 6.71147614 1.70133972 5.98933411 C0 1.11635494 0 1.11635494 0 0 Z " fill="#000000" transform="translate(602,249)"/>
<path d="M0 0 C12.21 0 24.42 0 37 0 C37 2.31 37 4.62 37 7 C32.05 7 27.1 7 22 7 C22 20.2 22 33.4 22 47 C19.36 47 16.72 47 14 47 C14 33.8 14 20.6 14 7 C9.38 7 4.76 7 0 7 C0 4.69 0 2.38 0 0 Z " fill="#000000" transform="translate(763,249)"/>
<path d="M0 0 C12.21 0 24.42 0 37 0 C37 2.31 37 4.62 37 7 C32.38 7 27.76 7 23 7 C23 20.2 23 33.4 23 47 C20.36 47 17.72 47 15 47 C15 33.8 15 20.6 15 7 C10.05 7 5.1 7 0 7 C0 4.69 0 2.38 0 0 Z " fill="#000000" transform="translate(303,249)"/>
<path d="M0 0 C12.21 0 24.42 0 37 0 C37 1.98 37 3.96 37 6 C36.67 6.33 36.34 6.66 36 7 C31.38 7 26.76 7 22 7 C22 20.2 22 33.4 22 47 C19.36 47 16.72 47 14 47 C14 33.8 14 20.6 14 7 C9.38 7 4.76 7 0 7 C0 4.69 0 2.38 0 0 Z " fill="#000000" transform="translate(655,249)"/>
<path d="M0 0 C12.21 0 24.42 0 37 0 C37 2.31 37 4.62 37 7 C32.05 7 27.1 7 22 7 C22 20.2 22 33.4 22 47 C19.69 47 17.38 47 15 47 C15 33.8 15 20.6 15 7 C10.05 7 5.1 7 0 7 C0 4.69 0 2.38 0 0 Z " fill="#000000" transform="translate(32,249)"/>
<path d="M0 0 C2.64 0 5.28 0 8 0 C8 13.2 8 26.4 8 40 C15.26 40 22.52 40 30 40 C30 42.31 30 44.62 30 47 C20.1 47 10.2 47 0 47 C0 31.49 0 15.98 0 0 Z " fill="#000000" transform="translate(728,249)"/>
<path d="M0 0 C2.64 0 5.28 0 8 0 C8 13.2 8 26.4 8 40 C14.93 40 21.86 40 29 40 C29 42.31 29 44.62 29 47 C19.43 47 9.86 47 0 47 C0 31.49 0 15.98 0 0 Z " fill="#000000" transform="translate(209,249)"/>
<path d="M0 0 C2.64 0 5.28 0 8 0 C8 15.51 8 31.02 8 47 C5.36 47 2.72 47 0 47 C0 31.49 0 15.98 0 0 Z " fill="#000000" transform="translate(354,249)"/>
<path d="M0 0 C2.64 0 5.28 0 8 0 C8 15.51 8 31.02 8 47 C5.36 47 2.72 47 0 47 C0 31.49 0 15.98 0 0 Z " fill="#000000" transform="translate(11,249)"/>
</svg>
