<svg width="77" height="23" viewBox="0 0 77 23" fill="none" xmlns="http://www.w3.org/2000/svg">
<path d="M5.98805 15.8048C5.53404 15.7449 4.37093 15.5041 3.4081 15.2863L1.65362 14.8798L2.55353 13.5112L3.45276 12.1427L2.72607 11.3979C1.69896 10.3452 0.372781 8.03702 0.363985 7.29339C0.354512 5.55583 3.07994 3.03712 6.42379 1.68369C8.72227 0.751348 10.5485 0.72895 12.8382 1.61649L14.5642 2.28509L15.0642 1.69152C15.3362 1.36787 15.5636 0.939494 15.5636 0.751347C15.5636 0.5632 15.7909 0.39801 16.0636 0.39801C16.3363 0.39801 16.5629 0.457927 16.5629 0.525682C16.5629 0.691431 14.5554 4.88667 14.4282 4.99195C14.3734 5.03674 13.828 4.82676 13.2103 4.52606C11.466 3.67603 9.27642 3.11215 7.57743 3.07463C3.62529 2.99176 2.25311 6.18802 5.04281 8.98448L6.02391 9.97001L8.704 8.17253C11.7116 6.16507 12.0567 6.11971 14.4011 7.45858C17.0352 8.96208 17.0806 11.2478 14.5365 13.6389C12.2833 15.7667 9.96725 16.3536 5.98737 15.8043L5.98805 15.8048ZM12.7299 13.5118C14.0378 12.6623 13.9471 11.0905 12.5296 9.84234C10.7487 8.27837 10.1953 8.34612 7.06049 10.5115C3.94398 12.6618 3.92571 12.5794 7.65118 13.5644C10.1127 14.2257 11.6574 14.2033 12.7299 13.5118ZM38.0422 21.7975C37.1511 21.5271 34.7525 20.7073 32.6997 19.9704C27.1575 17.9702 26.376 17.9327 24.7223 19.5947C24.3407 19.9782 23.9232 20.2185 23.8048 20.121C23.4503 19.8276 24.5044 18.4215 25.7765 17.497C26.8117 16.745 27.1568 16.6397 28.3023 16.745C29.029 16.8122 31.4459 17.5122 33.6713 18.2939C38.6959 20.0605 40.1675 20.4368 42.0851 20.4368C44.4194 20.4368 45.619 19.0834 44.8829 17.2865C44.7015 16.8352 44.7557 16.6845 45.1197 16.6845C45.8004 16.6845 46.1461 18.79 45.6556 20.0006C45.4458 20.5191 44.8375 21.2561 44.3017 21.6245C43.5019 22.1811 42.9931 22.3015 41.4937 22.2937C40.4855 22.2864 38.9327 22.0686 38.0422 21.7975ZM25.0951 15.3692C23.0328 14.5718 21.17 13.0532 20.0976 11.2786C18.381 8.43627 18.9074 6.61696 22.1606 4.15816C24.8948 2.09022 27.1304 1.28555 30.138 1.28555C32.3086 1.28555 32.7721 1.38354 34.1801 2.0975C37.5145 3.80482 38.3413 7.06045 36.3338 10.6089C33.9805 14.7751 29.0107 16.8732 25.0951 15.3692ZM32 13.3914C33.5441 12.7597 34.6077 9.84234 34.1713 7.42106C33.6259 4.43646 28.7475 2.3982 25.1675 3.66203C21.4881 4.96283 21.4333 8.429 25.0498 11.5491C27.5749 13.7374 29.7469 14.3086 32 13.3914ZM39.0051 15.9179C39.0051 15.7897 39.5768 15.5646 40.2859 15.4212L41.5668 15.1581L41.8394 11.3391C42.1392 7.11308 41.9206 2.9548 41.3672 2.39876C41.1669 2.20277 40.5586 1.96199 40.0044 1.85727C37.7513 1.44346 39.25 1.15788 43.6203 1.15788C47.9906 1.15788 49.3804 1.42106 47.2998 1.85727C45.5101 2.22573 45.5006 2.24813 45.5006 8.27837C45.5006 11.6241 45.6461 14.1434 45.8552 14.4665C46.1461 14.9178 46.5819 15.0153 48.2538 15.0153C51.7059 15.0153 52.8961 14.3388 53.8325 11.8347C54.114 11.0832 54.8407 11.2187 54.5863 11.978C54.4679 12.3308 54.2777 13.4059 54.1593 14.3836L53.9415 16.1509H46.4729C42.3659 16.1509 39.0051 16.0456 39.0051 15.9179Z" fill="#E7AA03"/>
<path d="M55.9673 15.737C55.9673 15.5119 56.2311 15.2862 56.6669 15.1132C57.2488 14.8876 57.6297 14.4138 59.0107 12.1807C61.2002 8.64733 64.653 2.57901 64.9798 1.66907C65.2343 0.977518 65.2891 0.940002 66.2336 0.849848C66.779 0.797212 67.233 0.766973 67.2418 0.782092C67.2513 0.797211 68.0057 2.1652 68.9232 3.82717C69.8319 5.48858 71.6581 8.64677 72.9843 10.8424C75.2015 14.5342 75.4472 14.8651 76.1914 15.1653C76.6461 15.3462 77 15.6245 77 15.7897C77 16.0528 76.6096 16.0831 73.2481 16.0831C69.8772 16.0831 69.4956 16.0528 69.4956 15.7824C69.4956 15.6021 69.7866 15.4066 70.2494 15.2784C70.677 15.1659 71.0038 14.9553 71.0038 14.7974C71.0038 14.6468 70.5586 13.6545 70.0132 12.5945L69.0233 10.6621H61.5183L60.801 11.9701C59.4559 14.4217 59.4289 15.0007 60.6826 15.2784C61.3099 15.4212 61.4824 15.5343 61.4093 15.7673C61.3281 16.0383 61.0006 16.0752 58.6386 16.0752C56.1033 16.0909 55.9673 16.0752 55.9673 15.737ZM68.2689 9.65414C68.3961 9.46655 65.5705 4.36081 65.3073 4.30818C65.1165 4.26338 62.1908 9.25601 62.1908 9.63174C62.1908 9.81989 68.1329 9.84229 68.2689 9.65414Z" fill="#E7AA03"/>
</svg>
