<svg width="89" height="64" viewBox="0 0 89 64" fill="none" xmlns="http://www.w3.org/2000/svg">
<g clip-path="url(#clip0_60_18)">
<path fill-rule="evenodd" clip-rule="evenodd" d="M60.188 23.8319L59.9707 15.7412L46.6294 19.5809C45.4271 19.8407 44.2465 19.9706 43.0804 19.9706C41.8346 19.9778 40.6106 19.8407 39.401 19.5809L26.6536 15.6979V23.9041C27.0158 28.1624 39.2852 29.4688 43.0514 29.6492C46.0717 29.7936 57.9934 28.2274 59.5579 25.7734C59.8983 25.2393 60.1083 24.5898 60.188 23.8319ZM1.83968 59.9121H10.9584C10.2848 59.7388 9.77783 59.1181 9.77783 58.3964V18.1951C9.77783 17.3362 10.4876 16.6289 11.3495 16.6289H18.3896C18.165 17.4301 18.0347 18.2456 18.0202 19.0828H12.4722V57.9489H76.3468V19.0828H70.9653C70.9508 18.2456 70.8277 17.4301 70.6032 16.6289H77.2449C78.1068 16.6289 78.8166 17.3362 78.8166 18.1951V58.3892C78.8166 59.1181 78.3168 59.7316 77.636 59.9048H87.1676C88.1816 59.9048 89.0072 60.7276 89.0072 61.7381C89.0072 62.7485 88.1816 63.5713 87.1676 63.5713H1.83968C0.825684 63.5713 0 62.7485 0 61.7381C0 60.7348 0.825684 59.9121 1.83968 59.9121ZM19.6571 51.0201C19.0704 51.0201 18.5924 50.5438 18.5924 49.9592C18.5924 49.3746 19.0704 48.8982 19.6571 48.8982H61.2165C61.8031 48.8982 62.2812 49.3746 62.2812 49.9592C62.2812 50.5438 61.8031 51.0201 61.2165 51.0201H19.6571ZM19.6571 44.6904C19.0704 44.6904 18.5924 44.2141 18.5924 43.6294C18.5924 43.0448 19.0704 42.5685 19.6571 42.5685H51.4749C52.0615 42.5685 52.5395 43.0448 52.5395 43.6294C52.5395 44.2141 52.0615 44.6904 51.4749 44.6904H19.6571ZM19.6571 38.3607C19.0704 38.3607 18.5924 37.8843 18.5924 37.2997C18.5924 36.7151 19.0704 36.2388 19.6571 36.2388H61.5496C62.1363 36.2388 62.6143 36.7151 62.6143 37.2997C62.6143 37.8843 62.1363 38.3607 61.5496 38.3607H19.6571ZM41.9143 60.5977H47.0857C47.571 60.5977 47.9693 60.9947 47.9693 61.4782C47.9693 61.9618 47.571 62.3588 47.0857 62.3588H41.9143C41.429 62.3588 41.0307 61.9618 41.0307 61.4782C41.0307 60.9875 41.429 60.5977 41.9143 60.5977ZM65.5984 9.91667V19.8046H65.9098C66.1199 19.8046 66.3009 19.9778 66.3009 20.1943V22.8504C66.3009 23.0597 66.1271 23.2401 65.9098 23.2401H65.5911V24.1712C65.9895 24.2433 66.2937 24.597 66.2937 25.0156C66.2937 25.4847 65.9026 25.8745 65.4318 25.8745H63.8891C63.4183 25.8745 63.0272 25.492 63.0272 25.0156C63.0272 24.597 63.3314 24.2506 63.7297 24.1712V23.2401H63.4183C63.2082 23.2401 63.0272 23.0669 63.0272 22.8504V20.1943C63.0272 19.9778 63.201 19.8046 63.4183 19.8046H63.737V10.4941L47.4985 15.5246C44.5579 16.2247 41.6173 16.268 38.6768 15.5246L20.758 10.1909L19.1356 9.70736C17.1148 8.88457 17.6218 6.95751 19.4977 6.51003L39.7704 0.476225C41.8636 -0.115608 43.9495 -0.209435 46.0427 0.476225L65.946 6.43785C68.1117 6.96473 68.539 8.95675 66.0185 9.77954L65.5984 9.91667Z" fill="white"/>
</g>
<defs>
<clipPath id="clip0_60_18">
<rect width="89" height="63.5714" fill="white"/>
</clipPath>
</defs>
</svg>
